<svg width="199" height="107" viewBox="0 0 199 107" fill="none" xmlns="http://www.w3.org/2000/svg">
<path d="M130.811 3.01595C131.101 3.06859 131.101 3.06859 131.437 3.3104C131.734 3.7422 131.789 4.08462 131.79 4.59467C131.79 4.77517 131.79 4.77517 131.791 4.95932C131.791 5.09004 131.79 5.22075 131.79 5.35543C131.79 5.49167 131.79 5.62791 131.791 5.76828C131.791 6.21367 131.79 6.65905 131.789 7.10444C131.789 7.25658 131.788 7.40871 131.788 7.56546C131.781 11.2775 131.643 14.9579 131.364 18.6593C131.243 20.2732 131.143 21.8877 131.054 23.5036C131.044 23.6751 131.035 23.8466 131.025 24.0233C131.017 24.1707 131.009 24.3181 131.001 24.4699C130.975 24.8393 130.94 25.2042 130.901 25.5722C130.82 26.3504 130.792 27.128 130.766 27.9096C130.76 28.0622 130.755 28.2149 130.749 28.3721C130.732 28.8571 130.715 29.342 130.699 29.8269C130.677 30.4636 130.654 31.1003 130.632 31.737C130.626 31.8905 130.621 32.0441 130.615 32.2023C130.584 33.0471 130.545 33.8905 130.491 34.7341C130.43 35.6952 130.406 36.6523 130.405 37.6151C130.403 37.7681 130.402 37.9211 130.4 38.0787C130.4 38.2241 130.4 38.3695 130.399 38.5193C130.399 38.6488 130.398 38.7783 130.398 38.9117C130.4 39.25 130.4 39.25 130.699 39.4913C131.001 39.553 131.307 39.6012 131.613 39.6414C131.777 39.6637 131.941 39.6861 132.11 39.7091C132.495 39.7495 132.862 39.7684 133.248 39.7581C133.264 39.5987 133.281 39.4393 133.297 39.275C133.32 39.0608 133.343 38.8466 133.366 38.6324C133.376 38.5279 133.387 38.4235 133.398 38.3158C133.466 37.6821 133.574 37.0744 133.72 36.4542C133.83 35.9479 133.887 35.4353 133.953 34.9218C134.158 33.4056 134.475 31.9168 134.795 30.421C134.963 29.633 135.116 28.8433 135.261 28.0508C135.604 26.2064 136.038 24.3729 136.558 22.5698C136.706 22.038 136.777 21.5592 136.779 21.0048C136.835 20.0084 137.236 19.3286 137.875 18.5788C138.079 18.4115 138.079 18.4115 138.54 18.3531C139.018 18.4115 139.018 18.4115 139.345 18.6116C139.75 19.2552 139.569 20.0699 139.408 20.7805C139.387 20.8695 139.366 20.9585 139.344 21.0501C139.322 21.1461 139.3 21.2421 139.277 21.3411C139.23 21.5457 139.183 21.7503 139.135 21.9547C139.008 22.4952 138.885 23.0365 138.762 23.5777C138.725 23.7387 138.725 23.7387 138.688 23.903C138.397 25.1771 138.143 26.4579 137.892 27.7401C137.808 28.1654 137.721 28.5902 137.633 29.015C137.126 31.4881 136.665 33.9689 136.21 36.4521C136.185 36.59 136.159 36.7279 136.133 36.8699C136.086 37.1283 136.039 37.3867 135.992 37.6451C135.865 38.3386 135.729 39.029 135.579 39.7179C135.525 40.0525 135.503 40.3538 135.529 40.692C135.889 41.0492 136.298 41.1489 136.771 41.3007C136.903 41.345 136.903 41.345 137.037 41.3901C137.952 41.6893 139.106 42.0249 140.028 41.6051C140.432 41.3063 140.597 41.0313 140.838 40.592C140.883 40.5118 140.927 40.4317 140.973 40.3491C141.325 39.7094 141.659 39.0602 141.995 38.4123C142.062 38.2841 142.128 38.1558 142.197 38.0237C142.265 37.8924 142.333 37.7612 142.403 37.626C142.88 36.7152 143.385 35.8273 143.916 34.9468C145.104 32.9731 146.209 30.9743 147.195 28.893C148.206 26.7605 149.388 24.7294 150.616 22.7147C152.723 19.2551 154.827 15.7749 156.435 12.0512C156.595 11.7449 156.725 11.5503 156.999 11.3404C157.465 11.3503 157.734 11.4276 158.123 11.6823C158.428 12.1362 158.392 12.5498 158.341 13.0748C158.257 13.4666 158.13 13.8341 157.989 14.2089C157.948 14.3171 157.908 14.4253 157.866 14.5368C157.321 15.9101 156.533 17.1504 155.766 18.4094C153.685 21.856 151.844 25.4475 149.994 29.0204C148.887 31.1579 147.765 33.285 146.599 35.3917C146.393 35.766 146.187 36.1409 145.982 36.516C145.914 36.6415 145.845 36.767 145.774 36.8963C145.638 37.1457 145.502 37.3952 145.366 37.6447C145.066 38.192 144.764 38.7369 144.447 39.2745C143.932 40.1509 143.473 41.0166 143.111 41.9678C143.078 42.0536 143.046 42.1394 143.012 42.2278C142.811 42.7852 142.708 43.3096 142.641 43.894C142.815 44.0026 142.988 44.1109 143.161 44.2192C143.258 44.2796 143.354 44.34 143.454 44.4022C143.96 44.7106 144.28 44.741 144.867 44.6591C145.849 44.3619 146.407 42.7909 146.86 41.9595C147.807 40.2507 148.834 38.6015 149.887 36.9564C150.091 36.636 150.295 36.3155 150.498 35.9949C150.628 35.7902 150.758 35.5856 150.889 35.3811C151.244 34.8233 151.596 34.2641 151.946 33.7028C152.867 32.2248 153.809 30.7642 154.775 29.3147C155.746 27.8565 156.693 26.4029 157.51 24.8522C157.773 24.3547 158.04 23.8598 158.308 23.3654C158.45 23.1046 158.59 22.8434 158.729 22.5815C158.825 22.4041 158.825 22.4041 158.923 22.2232C158.979 22.1183 159.035 22.0135 159.093 21.9054C159.305 21.576 159.516 21.3313 159.817 21.0798C160.447 21.0003 160.737 20.9969 161.293 21.2966C161.562 21.6135 161.562 21.6135 161.603 21.9809C161.555 22.487 161.412 22.8055 161.176 23.2562C161.134 23.3366 161.092 23.417 161.049 23.4998C160.557 24.4292 160.015 25.33 159.472 26.2307C159.269 26.5689 159.068 26.9084 158.868 27.2482C157.868 28.9437 156.843 30.6221 155.792 32.2868C155.718 32.4044 155.643 32.5219 155.567 32.6431C154.764 33.9135 153.949 35.1741 153.105 36.4184C152.012 38.031 150.998 39.6745 150.022 41.3591C149.695 41.9209 149.368 42.4823 149.04 43.0435C148.922 43.2469 148.922 43.2469 148.802 43.4544C148.318 44.2831 147.813 45.073 147.225 45.8333C147 46.3088 147.058 46.5975 147.204 47.096C147.479 47.3802 147.479 47.3802 147.849 47.588C149.218 48.5048 150.276 49.6867 151.264 50.9907C151.798 51.6944 151.798 51.6944 152.437 52.2993C152.946 52.2571 153.262 52.0971 153.665 51.7958C153.768 51.7195 153.872 51.6433 153.978 51.5647C154.087 51.4824 154.195 51.4001 154.307 51.3153C154.421 51.2306 154.535 51.1459 154.652 51.0586C155.541 50.393 156.418 49.7124 157.29 49.024C158.946 47.7201 160.628 46.451 162.321 45.1953C162.611 44.9796 162.899 44.7627 163.188 44.545C166.465 42.0727 169.917 39.8424 173.37 37.6235C173.696 37.4138 174.022 37.204 174.348 36.9943C174.546 36.8671 174.744 36.7399 174.942 36.6128C175.314 36.3736 175.685 36.1335 176.054 35.889C176.515 35.8307 176.515 35.8307 176.993 35.889C177.421 36.2486 177.517 36.4739 177.606 37.0231C177.453 37.9694 176.552 38.3891 175.817 38.919C175.123 39.4074 174.414 39.8729 173.705 40.3386C171.371 41.8712 169.081 43.4598 166.817 45.0927C166.319 45.4515 165.82 45.8075 165.319 46.1621C163.44 47.4944 161.573 48.8418 159.718 50.2079C159.522 50.3526 159.325 50.4971 159.129 50.6415C157.838 51.5891 156.582 52.5724 155.343 53.586C155.047 53.8267 154.749 54.064 154.45 54.3005C154.494 54.4326 154.538 54.5647 154.584 54.7008C155.4 54.6193 156.12 54.3864 156.89 54.1134C157.024 54.0669 157.157 54.0203 157.295 53.9723C157.733 53.8187 158.172 53.6637 158.61 53.5083C158.761 53.455 158.912 53.4016 159.068 53.3466C165.372 51.1201 171.565 48.6699 177.64 45.8851C178.229 45.6155 178.818 45.3477 179.408 45.0802C179.611 44.9878 179.815 44.8954 180.018 44.803C180.119 44.7574 180.219 44.7118 180.323 44.6649C181.092 44.3154 181.862 43.9652 182.631 43.6151C182.89 43.4973 183.149 43.3795 183.408 43.2617C183.861 43.0557 184.315 42.8495 184.768 42.6432C184.899 42.5837 185.03 42.5241 185.165 42.4628C185.284 42.4085 185.403 42.3542 185.526 42.2982C185.629 42.2517 185.731 42.2052 185.836 42.1573C186.027 42.0685 186.216 41.9753 186.403 41.8783C186.9 41.6433 187.46 41.7023 187.997 41.7594C188.491 41.9745 188.635 42.1103 188.936 42.5599C188.965 42.9403 188.965 42.9403 188.802 43.3604C188.412 43.6658 187.973 43.865 187.527 44.0775C187.322 44.1789 187.322 44.1789 187.114 44.2824C186.731 44.4712 186.347 44.6571 185.962 44.842C185.626 45.0047 185.291 45.1703 184.956 45.3359C176.895 49.3167 168.509 52.606 160.076 55.7133C159.992 55.7443 159.908 55.7753 159.821 55.8072C159.424 55.9534 159.028 56.0995 158.631 56.2451C157.859 56.5295 157.093 56.8226 156.334 57.1409C156.06 57.2357 156.06 57.2357 155.658 57.2357C155.779 57.4891 155.903 57.7419 156.027 57.9945C156.095 58.1353 156.164 58.2762 156.234 58.4213C156.31 58.5584 156.385 58.6954 156.463 58.8367C156.527 58.9641 156.591 59.0915 156.658 59.2228C157.15 59.6277 157.553 59.5787 158.177 59.5517C158.849 59.4772 159.468 59.3079 160.111 59.1035C160.248 59.0617 160.385 59.0199 160.527 58.9769C160.962 58.8436 161.396 58.7069 161.83 58.5698C162.117 58.4808 162.404 58.3919 162.69 58.303C163.999 57.894 165.301 57.4674 166.594 57.0105C167.768 56.5963 168.949 56.2307 170.15 55.9015C170.248 55.8744 170.347 55.8472 170.449 55.8193C171.67 55.4859 172.896 55.1879 174.133 54.9176C175.593 54.5965 177.019 54.1827 178.452 53.758C179.184 53.5411 179.916 53.3269 180.65 53.1164C180.784 53.0766 180.918 53.0369 181.056 52.9959C181.868 52.7647 182.631 52.6433 183.475 52.6067C183.861 52.5634 184.152 52.4511 184.508 52.2993C184.91 52.2326 184.91 52.2326 185.313 52.2993C185.742 52.6887 185.956 52.9443 186.059 53.5167C185.964 54.0005 185.829 54.1246 185.447 54.4339C185.026 54.5843 185.026 54.5843 184.535 54.7013C184.447 54.723 184.358 54.7447 184.267 54.767C184.082 54.8125 183.897 54.8573 183.711 54.9013C183.278 55.005 182.848 55.1179 182.417 55.2297C182.162 55.2951 181.906 55.3605 181.651 55.4258C181.196 55.542 180.741 55.6587 180.287 55.7754C179.821 55.895 179.354 56.0146 178.888 56.1336C177.484 56.4921 176.091 56.8823 174.7 57.2907C173.866 57.5345 173.03 57.7635 172.188 57.9778C171.246 58.2181 170.321 58.4937 169.397 58.7915C168.759 58.9958 168.12 59.1867 167.474 59.365C165.778 59.834 164.104 60.3664 162.43 60.9114C161.958 61.0652 161.485 61.2175 161.011 61.3698C160.708 61.4681 160.405 61.5665 160.102 61.665C159.962 61.71 159.822 61.7551 159.677 61.8015C159.547 61.8443 159.416 61.8871 159.282 61.9311C159.168 61.9681 159.054 62.0051 158.936 62.0432C158.577 62.185 158.265 62.3667 157.939 62.5723C157.997 63.1912 158.14 63.7398 158.333 64.3318C158.567 65.0595 158.717 65.7706 158.825 66.5264C158.862 66.843 158.862 66.843 159.012 67.1085C159.728 67.1334 160.383 67.0887 161.09 66.9754C162.435 66.7821 163.781 66.8109 165.137 66.8203C165.413 66.8211 165.689 66.8218 165.966 66.8224C166.688 66.8242 167.41 66.8274 168.132 66.8311C169.289 66.8369 170.447 66.8408 171.604 66.8439C172.005 66.8453 172.406 66.8476 172.808 66.8499C173.989 66.8551 175.147 66.8389 176.322 66.7082C176.608 66.6952 176.893 66.6852 177.178 66.6801C177.332 66.6766 177.486 66.6731 177.644 66.6694C177.809 66.6657 177.973 66.662 178.142 66.6582C179.852 66.6138 181.553 66.5096 183.258 66.383C189.906 65.8934 189.906 65.8934 193.006 65.8608C193.272 65.8578 193.539 65.8525 193.805 65.8472C195.263 65.8443 195.263 65.8443 195.914 66.4414C196.048 66.5748 196.048 66.5748 196.09 67.0168C196.048 67.5087 196.048 67.5087 195.834 67.7985C195.413 68.1169 195.13 68.1312 194.604 68.168C194.513 68.175 194.421 68.1821 194.327 68.1893C194.02 68.2123 193.713 68.2316 193.406 68.2509C193.183 68.2665 192.96 68.2823 192.736 68.2983C192.13 68.3409 191.524 68.38 190.918 68.4186C190.555 68.4421 190.191 68.4668 189.828 68.4921C181.961 69.0381 174.087 69.2813 166.202 69.3378C165.96 69.3397 165.718 69.3415 165.476 69.3434C165.029 69.3468 164.583 69.3494 164.137 69.3513C163.154 69.357 162.174 69.3756 161.193 69.4284C160.941 69.4419 160.941 69.4419 160.683 69.4557C160.227 69.5091 159.843 69.616 159.415 69.7768C159.404 70.0297 159.396 70.2826 159.39 70.5356C159.383 70.7469 159.383 70.7469 159.375 70.9625C159.423 71.4662 159.589 71.8182 159.952 72.1783C160.295 72.1949 160.636 72.2032 160.979 72.2065C161.202 72.2099 161.425 72.2135 161.648 72.2171C161.766 72.2189 161.885 72.2207 162.007 72.2225C164.154 72.2565 166.29 72.3466 168.43 72.5118C168.546 72.5206 168.661 72.5294 168.78 72.5385C169.107 72.5637 169.434 72.5896 169.761 72.6161C169.857 72.6237 169.953 72.6314 170.052 72.6392C170.451 72.6729 170.844 72.7159 171.239 72.7829C171.642 72.848 172.026 72.8665 172.435 72.8735C172.585 72.8773 172.736 72.8811 172.891 72.885C173.204 72.8919 173.518 72.8979 173.831 72.9027C174.665 72.9255 175.327 72.9549 176.054 73.3791C176.329 73.7891 176.365 73.9095 176.373 74.3797C176.377 74.4829 176.38 74.5861 176.384 74.6924C176.322 74.9801 176.322 74.9801 176.096 75.1964C175.712 75.424 175.494 75.4236 175.049 75.409C174.894 75.4044 174.739 75.3999 174.579 75.3952C174.407 75.3875 174.235 75.3799 174.058 75.372C173.875 75.3651 173.692 75.3582 173.508 75.3514C170.931 75.2459 168.357 75.0354 165.784 74.8383C165.645 74.8277 165.506 74.8172 165.362 74.8063C164.792 74.7618 164.225 74.7141 163.657 74.6407C162.999 74.5581 162.35 74.5448 161.688 74.5381C161.559 74.5342 161.431 74.5304 161.299 74.5264C160.459 74.5189 159.966 74.6214 159.281 75.1135C158.622 75.9091 158.472 77.0578 158.341 78.0486C158.194 79.1472 157.927 80.0776 157.444 81.0755C157.161 81.6676 157.061 82.0689 157.134 82.7182C156.371 82.4986 155.689 82.1458 154.987 81.7843C155.083 81.1954 155.282 80.6566 155.49 80.0999C155.797 79.2557 156.064 78.4078 156.295 77.54C156.322 77.4414 156.348 77.3428 156.376 77.2413C156.455 76.9333 156.528 76.6247 156.597 76.3142C156.622 76.2011 156.648 76.088 156.674 75.9715C156.902 74.8141 156.906 73.6685 156.9 72.494C156.899 72.1562 156.9 71.8185 156.902 71.4807C156.904 69.5806 156.755 67.713 156.32 65.8577C156.278 65.6776 156.278 65.6776 156.235 65.4938C155.189 61.2013 153.433 57.0387 150.558 53.6334C150.495 53.5572 150.431 53.4809 150.366 53.4024C149.082 51.8611 147.727 50.4582 146.13 49.2307C146.043 49.1626 145.956 49.0945 145.866 49.0243C144.169 47.708 142.396 46.6258 140.494 45.6284C140.413 45.5857 140.333 45.543 140.249 45.4989C135.185 42.8258 129.577 40.6357 123.782 42.3694C123.416 42.4839 123.053 42.605 122.689 42.726C122.226 42.8764 121.759 43.014 121.292 43.1528C116.965 44.4412 112.898 45.7645 109.497 48.8304C109.32 48.9826 109.32 48.9826 109.139 49.1379C107.056 50.9424 104.619 53.6402 103.727 56.3018C103.167 56.1514 102.665 55.921 102.15 55.6597C101.96 55.5635 101.96 55.5635 101.767 55.4653C101.446 55.2344 101.446 55.2344 101.33 54.911C101.14 54.4823 100.969 54.3919 100.556 54.1744C100.43 54.1058 100.303 54.0372 100.172 53.9666C100.036 53.8952 99.9002 53.8237 99.7601 53.7502C98.7806 53.2195 97.8206 52.6803 96.8918 52.0658C95.4589 51.1263 94.0109 50.2995 92.4301 49.6309C91.3446 49.1705 90.4465 48.6006 89.5031 47.8965C88.245 46.9906 86.9275 46.181 85.6117 45.3616C85.1753 45.0896 84.7393 44.8171 84.3033 44.5444C84.2086 44.4855 84.1138 44.4266 84.0161 44.3658C83.1034 43.7949 82.2083 43.1981 81.3125 42.6017C80.8926 42.3221 80.4725 42.0431 80.0523 41.7641C79.9707 41.7099 79.8892 41.6557 79.8051 41.5998C75.811 38.9278 75.811 38.9278 71.6866 36.4623C71.5312 36.3745 71.5312 36.3745 71.3726 36.2849C71.1764 36.1746 70.9794 36.0658 70.7813 35.9588C70.1876 35.624 69.8261 35.312 69.5092 34.6883C69.4767 34.3615 69.4767 34.3615 69.5259 34.0629C69.5401 33.9633 69.5543 33.8637 69.5689 33.7611C69.6434 33.4875 69.6434 33.4875 69.9117 33.0873C70.6339 33.0021 71.0568 33.1402 71.6714 33.5084C71.7469 33.5529 71.8223 33.5973 71.9001 33.6432C72.1471 33.7894 72.3923 33.9386 72.6374 34.0879C72.8118 34.1923 72.9863 34.2965 73.1609 34.4005C73.6056 34.6662 74.0487 34.9345 74.4914 35.2034C74.866 35.4301 75.2423 35.6539 75.6184 35.8781C77.8391 37.2104 79.9915 38.6404 82.1428 40.0798C83.0045 40.6562 83.8694 41.2278 84.734 41.7997C85.3829 42.2292 86.0304 42.6605 86.6757 43.0951C89.5356 45.016 92.5057 46.7354 95.5045 48.4299C96.3655 48.9165 97.2245 49.4064 98.0827 49.8978C98.2281 49.9809 98.3736 50.0641 98.5234 50.1498C99.3973 50.6516 100.261 51.1647 101.108 51.7098C101.729 52.0578 102.343 52.2692 103.056 52.1658C103.36 51.9677 103.596 51.75 103.861 51.4988C103.828 51.069 103.714 50.9536 103.388 50.6576C103.236 50.542 103.084 50.4278 102.93 50.3147C102.758 50.1839 102.585 50.0531 102.413 49.9223C102.321 49.8533 102.229 49.7843 102.134 49.7132C101.644 49.3433 101.16 48.9653 100.674 48.5886C100.469 48.43 100.264 48.2714 100.058 48.1128C99.6398 47.7896 99.2216 47.4661 98.8035 47.1424C97.919 46.4578 97.0344 45.7735 96.1454 45.0948C95.9365 44.9349 95.7276 44.7751 95.5187 44.6152C95.3354 44.4752 95.152 44.3355 94.9684 44.1958C94.6362 43.9429 94.3047 43.6892 93.9732 43.4354C93.867 43.3548 93.7608 43.2743 93.6514 43.1912C93.5523 43.1151 93.4532 43.039 93.351 42.9606C93.2624 42.893 93.1737 42.8253 93.0823 42.7556C92.7405 42.4576 92.599 42.2225 92.5307 41.776C92.5894 41.3591 92.5894 41.3591 92.8662 40.9755C93.3697 40.6134 93.5866 40.6188 94.1997 40.692C94.5628 40.8766 94.8658 41.12 95.1809 41.3758C95.2729 41.4473 95.3648 41.5189 95.4595 41.5926C95.6558 41.7456 95.8513 41.8996 96.0461 42.0545C96.4447 42.3708 96.8475 42.6815 97.2504 42.9924C97.4542 43.1497 97.6578 43.3073 97.8612 43.4652C98.5994 44.0382 99.3461 44.5989 100.097 45.1551C100.792 45.6707 101.476 46.1985 102.159 46.7291C102.458 46.9603 102.757 47.1913 103.057 47.4222C103.295 47.6068 103.531 47.7933 103.767 47.9804C104.718 48.7244 104.718 48.7244 105.874 48.8304C106.284 48.5686 106.607 48.2409 106.947 47.8965C107.128 47.7336 107.309 47.5723 107.493 47.4129C107.58 47.3362 107.668 47.2595 107.758 47.1804C108.011 46.9707 108.27 46.7819 108.541 46.5957C109.047 46.2332 109.203 46.0401 109.313 45.4283C109.293 44.6659 108.799 44.1651 108.339 43.5942C107.482 42.5047 106.712 41.355 105.946 40.2012C104.41 37.8894 102.808 35.6363 101.149 33.4102C100.909 33.0867 100.669 32.7627 100.429 32.4384C99.6344 31.3639 98.837 30.2918 98.0295 29.2268C97.6671 28.7481 97.3086 28.2669 96.9542 27.7824C96.1379 26.6677 95.3111 25.5782 94.4025 24.5361C93.9799 24.0499 93.5733 23.5517 93.1665 23.0524C92.8934 22.7237 92.6127 22.4032 92.3298 22.0829C89.118 18.4175 89.118 18.4175 89.0922 16.8272C89.2347 16.4102 89.2347 16.4102 89.4612 16.1517C89.8872 15.9571 90.1106 15.9282 90.5766 16.01C91.3061 16.4961 91.8253 17.1646 92.3378 17.8611C92.4901 18.0637 92.6426 18.2661 92.7954 18.4683C92.8724 18.5702 92.9494 18.6721 93.0287 18.7771C93.3884 19.2452 93.7642 19.6996 94.141 20.1542C94.7821 20.9309 95.3972 21.7227 95.9998 22.5292C96.504 23.2034 97.018 23.8694 97.5376 24.532C97.6161 24.6321 97.6946 24.7323 97.7755 24.8355C98.1711 25.3396 98.5675 25.843 98.9644 26.3461C100.006 27.6686 101.018 29.0096 102.015 30.3656C102.252 30.6876 102.491 31.0087 102.73 31.3294C103.69 32.6183 104.631 33.9188 105.558 35.2321C105.777 35.5409 105.998 35.8479 106.22 36.1547C106.861 37.0422 107.493 37.9363 108.122 38.8325C108.213 38.9625 108.304 39.0926 108.398 39.2265C108.86 39.8881 109.316 40.5531 109.761 41.2267C109.845 41.3542 109.929 41.4816 110.016 41.6129C110.175 41.8545 110.333 42.0967 110.489 42.3397C110.862 42.9061 111.188 43.3956 111.778 43.7606C112.238 43.7383 112.587 43.581 112.986 43.3604C113.024 42.8328 112.959 42.5802 112.643 42.1575C112.107 41.4019 111.671 40.6018 111.225 39.7915C111.046 39.4685 110.867 39.1458 110.687 38.8232C110.643 38.7431 110.599 38.6631 110.553 38.5807C110.16 37.8741 109.759 37.1726 109.354 36.4727C108.691 35.3237 108.038 34.1689 107.388 33.0122C106.863 32.0796 106.336 31.1486 105.807 30.2188C104.957 28.7251 104.112 27.2281 103.27 25.7296C103.076 25.3843 102.881 25.0391 102.687 24.694C102.415 24.2125 102.146 23.7299 101.879 23.2461C101.762 23.0347 101.645 22.8236 101.527 22.6127C101.336 22.2694 101.147 21.925 100.959 21.5801C100.901 21.4751 100.842 21.3702 100.781 21.262C100.477 20.6984 100.263 20.2691 100.372 19.6122C100.756 19.1945 101.02 18.9779 101.58 18.8618C102.218 18.9939 102.617 19.3598 102.973 19.8862C103.166 20.2216 103.347 20.5612 103.526 20.9047C103.629 21.0976 103.629 21.0976 103.734 21.2945C103.881 21.57 104.027 21.846 104.173 22.1222C104.471 22.6848 104.775 23.2439 105.079 23.8032C105.645 24.8441 106.207 25.8869 106.768 26.9308C108.603 30.3506 110.48 33.7437 112.449 37.0898C112.523 37.2163 112.597 37.3428 112.674 37.4732C113.952 39.9469 113.952 39.9469 115.938 41.7594C117.005 41.9667 118.035 41.587 119.024 41.2257C119.146 41.1813 119.268 41.1369 119.393 41.0912C119.808 40.9382 120.221 40.7824 120.635 40.6253C120.769 40.5747 120.904 40.524 121.043 40.4719C122.155 40.0726 122.155 40.0726 122.916 39.2244C122.933 38.8809 122.941 38.5425 122.941 38.1988C122.943 38.1086 122.944 38.0184 122.946 37.9255C122.948 37.3068 122.886 36.7142 122.796 36.1022C122.575 34.5323 122.491 32.9506 122.387 31.3696C122.37 31.1115 122.37 31.1115 122.353 30.8481C122.141 27.6639 121.984 24.4779 121.844 21.2897C121.828 20.9336 121.812 20.5776 121.797 20.2215C121.785 19.966 121.785 19.966 121.774 19.7054C121.705 18.1616 121.618 16.6192 121.515 15.0773C121.464 14.294 121.425 13.511 121.408 12.7262C121.404 12.5756 121.4 12.4251 121.397 12.27C121.445 11.8269 121.517 11.6441 121.842 11.3404C122.969 11.2337 122.969 11.2337 123.453 11.6072C123.791 12.0877 123.911 12.441 123.944 13.0244C123.952 13.1653 123.961 13.3062 123.97 13.4513C123.976 13.5912 123.983 13.7312 123.989 13.8753C123.995 13.9975 124.001 14.1196 124.007 14.2454C124.023 14.6131 124.036 14.9808 124.047 15.3486C124.057 15.6319 124.066 15.9152 124.076 16.1984C124.084 16.4193 124.084 16.4193 124.091 16.6447C124.189 19.5211 124.334 22.3914 124.522 25.2634C124.609 26.6154 124.685 27.9637 124.719 29.3183C124.764 30.9522 124.909 32.5771 125.054 34.2047C125.066 34.3351 125.077 34.4655 125.089 34.5998C125.147 37.0168 125.147 37.0168 125.868 39.2244C126.569 39.3048 127.013 39.1847 127.612 38.8242C127.94 38.4985 127.914 38.4164 127.915 37.9699C127.916 37.8464 127.917 37.7229 127.918 37.5957C127.918 37.4599 127.918 37.3241 127.917 37.1841C127.92 36.8886 127.922 36.593 127.925 36.2975C127.926 36.0614 127.926 36.0614 127.928 35.8206C127.948 33.0005 128.05 30.1957 128.267 27.3837C128.278 27.2288 128.29 27.0739 128.303 26.9143C128.413 25.4859 128.533 24.0583 128.667 22.6318C128.701 22.2646 128.736 21.8974 128.77 21.5301C128.782 21.3978 128.782 21.3978 128.794 21.2628C129.159 17.2429 129.204 13.189 129.298 9.15571C129.302 8.9875 129.302 8.9875 129.306 8.8159C129.311 8.59667 129.316 8.37744 129.322 8.15821C129.331 7.75497 129.341 7.35174 129.35 6.9485C129.357 6.68243 129.363 6.41634 129.369 6.15026C129.379 5.70942 129.393 5.26875 129.407 4.82802C129.41 4.70696 129.412 4.58591 129.415 4.46119C129.432 4.00149 129.453 3.67843 129.66 3.26298C130.034 2.95151 130.342 2.99546 130.811 3.01595Z" fill="#FCD116"/>
<path d="M99.1562 59.9874C99.3163 59.9841 99.4764 59.9808 99.6413 59.9775C99.8721 59.9767 99.8721 59.9767 100.108 59.9759C100.248 59.9748 100.389 59.9737 100.534 59.9726C101.003 60.0537 101.154 60.2047 101.446 60.5711C101.626 60.9708 101.626 60.9708 101.781 61.4299C101.866 61.6789 101.866 61.6789 101.953 61.9329C102.102 62.3948 102.245 62.858 102.385 63.3228C102.551 63.8693 102.737 64.3913 102.964 64.9155C103.296 65.6863 103.575 66.469 103.849 67.2618C104.116 68.0317 104.393 68.7972 104.677 69.5611C104.751 69.7593 104.824 69.9576 104.898 70.1559C105.008 70.4526 105.118 70.7493 105.229 71.0456C105.334 71.325 105.438 71.6049 105.542 71.8849C105.602 72.0475 105.663 72.2101 105.726 72.3776C105.877 72.8547 105.952 73.2841 106.008 73.7793C106.097 73.7793 106.185 73.7793 106.277 73.7793C106.276 73.6111 106.275 73.4429 106.275 73.2695C106.269 71.6871 106.265 70.1047 106.263 68.5223C106.261 67.7087 106.259 66.8951 106.256 66.0815C106.253 65.2969 106.252 64.5123 106.251 63.7277C106.251 63.4278 106.25 63.1279 106.248 62.828C106.246 62.4092 106.246 61.9903 106.246 61.5715C106.245 61.4465 106.244 61.3214 106.243 61.1926C106.243 61.0788 106.244 60.9651 106.244 60.8479C106.244 60.7488 106.244 60.6497 106.243 60.5475C106.277 60.3042 106.277 60.3042 106.545 60.0374C106.916 60.005 106.916 60.005 107.384 60.0067C107.551 60.0069 107.718 60.0072 107.891 60.0074C108.155 60.0099 108.155 60.0099 108.424 60.0124C108.599 60.0125 108.775 60.0126 108.956 60.0127C110.264 60.0187 110.264 60.0187 110.571 60.1708C110.574 63.4389 110.576 66.7069 110.577 69.9749C110.578 71.4922 110.579 73.0095 110.581 74.5267C110.582 75.8487 110.583 77.1707 110.583 78.4926C110.583 79.193 110.584 79.8935 110.585 80.5939C110.586 81.2523 110.586 81.9108 110.586 82.5692C110.586 82.8116 110.586 83.0541 110.586 83.2965C110.587 83.6259 110.587 83.9554 110.587 84.2849C110.587 84.3821 110.587 84.4793 110.588 84.5794C110.586 85.2379 110.586 85.2379 110.436 85.3865C109.817 85.4279 109.195 85.4237 108.574 85.4282C108.399 85.4321 108.224 85.436 108.043 85.44C107.876 85.4411 107.708 85.4422 107.536 85.4433C107.304 85.4463 107.304 85.4463 107.068 85.4492C106.679 85.3865 106.679 85.3865 106.44 85.1606C106.262 84.8257 106.136 84.5037 106.021 84.1425C105.977 84.0052 105.932 83.8679 105.886 83.7264C105.84 83.5836 105.795 83.4407 105.748 83.2936C105.47 82.425 105.184 81.5833 104.799 80.7557C104.538 80.1553 104.348 79.5294 104.146 78.9075C103.79 77.8271 103.418 76.7588 103.009 75.6972C102.65 74.7599 102.317 73.8125 101.98 72.8671C101.93 72.728 101.88 72.5889 101.829 72.4457C101.784 72.3202 101.739 72.1948 101.693 72.0655C101.605 71.7852 101.605 71.7852 101.446 71.6446C101.444 71.8148 101.443 71.985 101.442 72.1604C101.428 73.7605 101.415 75.3606 101.4 76.9607C101.393 77.7834 101.386 78.6062 101.379 79.4289C101.373 80.2221 101.366 81.0154 101.358 81.8087C101.355 82.112 101.353 82.4154 101.351 82.7188C101.347 83.1421 101.343 83.5654 101.339 83.9888C101.338 84.1155 101.338 84.2423 101.337 84.3729C101.327 85.2379 101.327 85.2379 101.177 85.3865C100.625 85.4156 100.072 85.4113 99.5194 85.4113C99.2417 85.4116 98.964 85.414 98.6863 85.4165C98.5122 85.4168 98.3381 85.417 98.1587 85.4173C97.9979 85.4178 97.8371 85.4184 97.6715 85.4189C97.2859 85.3865 97.2859 85.3865 97.0176 85.1197C96.9908 84.7907 96.9808 84.4765 96.9826 84.1473C96.9821 84.0459 96.9816 83.9446 96.981 83.8401C96.9796 83.4986 96.9802 83.1572 96.9807 82.8157C96.9801 82.5716 96.9794 82.3275 96.9786 82.0834C96.9768 81.4191 96.9768 80.7548 96.9771 80.0905C96.9772 79.5367 96.9766 78.983 96.9759 78.4293C96.9745 77.1235 96.9744 75.8177 96.9752 74.5119C96.976 73.1628 96.9744 71.8137 96.9715 70.4645C96.9692 69.3079 96.9683 68.1513 96.9688 66.9947C96.969 66.3031 96.9687 65.6116 96.9668 64.92C96.9651 64.27 96.9654 63.62 96.9671 62.9699C96.9674 62.7308 96.9671 62.4917 96.966 62.2526C96.9646 61.9272 96.9656 61.602 96.9674 61.2766C96.9664 61.181 96.9654 61.0854 96.9644 60.9869C96.9673 60.7239 96.9673 60.7239 97.0176 60.3042C97.6698 59.8719 98.3895 59.9882 99.1562 59.9874Z" fill="#FCD116"/>
<path d="M27.7265 63.3513C27.8488 63.35 27.9712 63.3488 28.0972 63.3474C28.2286 63.3469 28.36 63.3463 28.4954 63.3457C28.6317 63.345 28.7681 63.3442 28.9086 63.3434C29.1972 63.3422 29.4859 63.3413 29.7745 63.3408C30.2133 63.3395 30.652 63.3353 31.0908 63.3311C31.3718 63.3303 31.6529 63.3296 31.9339 63.329C32.0639 63.3274 32.194 63.3257 32.328 63.3241C33.6402 63.3283 34.7393 63.6495 35.6938 64.5736C36.2538 65.2943 36.6654 66.0574 36.669 66.982C36.6701 67.1145 36.6713 67.2471 36.6724 67.3837C36.6723 67.5277 36.6722 67.6716 36.6721 67.82C36.673 67.9728 36.6739 68.1256 36.6748 68.283C36.6774 68.7884 36.6779 69.2938 36.6782 69.7992C36.679 70.151 36.6799 70.5028 36.6809 70.8546C36.6826 71.5925 36.683 72.3304 36.6828 73.0682C36.6827 73.9185 36.6855 74.7687 36.6897 75.6189C36.6937 76.4393 36.6946 77.2597 36.6945 78.0802C36.6948 78.428 36.696 78.7758 36.698 79.1236C36.7007 79.6112 36.6999 80.0987 36.6983 80.5862C36.6998 80.7289 36.7013 80.8715 36.7029 81.0184C36.6927 82.2292 36.3696 83.3867 35.5596 84.3192C34.3996 85.1464 33.4074 85.4281 31.9968 85.4314C31.7928 85.4327 31.7928 85.4327 31.5847 85.434C31.2977 85.4354 31.0107 85.436 30.7236 85.436C30.2872 85.4366 29.8509 85.4414 29.4145 85.4465C29.1347 85.4473 28.8548 85.4478 28.575 85.448C28.4458 85.4499 28.3166 85.4519 28.1835 85.4538C27.3068 85.448 26.6679 85.2662 25.8981 84.8529C25.7569 84.7786 25.6158 84.7043 25.4704 84.6277C24.6331 83.9433 24.2049 83.1058 24.0195 82.0511C23.9813 81.54 23.98 81.0306 23.9805 80.5182C23.9796 80.3679 23.9787 80.2177 23.9778 80.0629C23.9752 79.5683 23.9747 79.0737 23.9744 78.5792C23.9735 78.2339 23.9726 77.8887 23.9717 77.5434C23.9701 76.8205 23.9696 76.0976 23.9697 75.3747C23.9699 74.542 23.9671 73.7093 23.9628 72.8765C23.9589 72.072 23.9579 71.2675 23.9581 70.4629C23.9578 70.1222 23.9566 69.7814 23.9545 69.4407C23.9519 68.9634 23.9527 68.4862 23.9543 68.0088C23.9528 67.8694 23.9513 67.7299 23.9497 67.5862C23.9601 66.3664 24.2736 65.287 25.1228 64.3781C25.8856 63.7231 26.7217 63.3599 27.7265 63.3513Z" fill="#FCD116"/>
<path d="M72.7559 63.3513C72.8428 63.3507 72.9297 63.35 73.0192 63.3493C73.3082 63.3474 73.5973 63.3464 73.8863 63.3457C74.0875 63.3449 74.2887 63.3442 74.4899 63.3434C74.913 63.342 75.3362 63.3412 75.7593 63.3408C76.2985 63.34 76.8376 63.3368 77.3767 63.333C77.7931 63.3305 78.2095 63.3298 78.6259 63.3296C78.8245 63.3292 79.023 63.3282 79.2215 63.3264C80.9343 63.3123 82.1802 63.4342 83.4462 64.6533C84.5381 65.8739 84.427 67.301 84.4358 68.8533C84.4363 68.9434 84.4369 69.0334 84.4374 69.1262C84.4402 69.6028 84.4422 70.0794 84.4434 70.556C84.4449 71.0442 84.4495 71.5323 84.4549 72.0204C84.4584 72.3995 84.4595 72.7786 84.46 73.1578C84.4609 73.424 84.4645 73.6902 84.4681 73.9565C84.4653 75.1363 84.3545 76.2656 83.5704 77.2023C83.4746 77.2834 83.3787 77.3646 83.28 77.4482C82.8964 77.8433 82.8964 77.8433 82.7605 78.3556C82.83 78.7554 82.942 79.1281 83.0619 79.5162C83.1426 79.829 83.2192 80.1427 83.296 80.4564C83.3813 80.8029 83.4689 81.1488 83.5573 81.4945C83.722 82.1408 83.8852 82.7874 84.0432 83.4353C84.0662 83.5264 84.0892 83.6175 84.1128 83.7113C84.2393 84.235 84.3048 84.7146 84.2696 85.2531C84.1354 85.3865 84.1354 85.3865 83.7753 85.4017C83.6186 85.401 83.4619 85.4003 83.3004 85.3996C83.1314 85.3991 82.9623 85.3987 82.7881 85.3983C82.6082 85.3971 82.4283 85.396 82.2484 85.3949C82.068 85.3942 81.8876 85.3936 81.7072 85.393C81.2642 85.3915 80.8212 85.3893 80.3782 85.3865C80.0355 84.5363 79.7985 83.6827 79.5815 82.7932C79.5468 82.6535 79.5122 82.5138 79.4766 82.3698C79.1873 81.1981 78.9081 80.0243 78.6338 78.8491C77.7481 78.8491 76.8625 78.8491 75.95 78.8491C75.9466 79.0424 75.9433 79.2357 75.9398 79.4349C75.9272 80.1492 75.9138 80.8635 75.9 81.5779C75.8942 81.8876 75.8886 82.1973 75.8833 82.507C75.8756 82.9511 75.867 83.3951 75.8583 83.8392C75.856 83.9786 75.8538 84.118 75.8515 84.2616C75.8488 84.3898 75.8461 84.518 75.8434 84.6501C75.8413 84.7636 75.8392 84.877 75.837 84.9939C75.8158 85.2531 75.8158 85.2531 75.6816 85.3865C75.4051 85.3999 75.1282 85.404 74.8513 85.4042C74.6829 85.4044 74.5144 85.4046 74.3408 85.4048C74.2526 85.4045 74.1645 85.4042 74.0736 85.4039C73.8041 85.4032 73.5347 85.4039 73.2652 85.4048C73.0967 85.4046 72.9282 85.4044 72.7547 85.4042C72.5988 85.4041 72.443 85.4039 72.2824 85.4038C71.9244 85.3865 71.9244 85.3865 71.7902 85.2531C71.7769 84.9731 71.7732 84.6927 71.7732 84.4124C71.7728 84.2791 71.7728 84.2791 71.7725 84.1432C71.772 83.8434 71.7724 83.5436 71.7728 83.2438C71.7726 83.0297 71.7724 82.8157 71.7721 82.6016C71.7715 82.0186 71.7717 81.4356 71.7722 80.8526C71.7725 80.2439 71.7722 79.6352 71.772 79.0265C71.7717 78.004 71.7721 76.9816 71.7727 75.9591C71.7734 74.7753 71.7732 73.5914 71.7725 72.4076C71.7718 71.393 71.7718 70.3785 71.7721 69.364C71.7723 68.7572 71.7723 68.1505 71.7719 67.5437C71.7715 66.9734 71.7718 66.4031 71.7726 65.8328C71.7727 65.6229 71.7727 65.4129 71.7724 65.203C71.772 64.9177 71.7725 64.6323 71.7732 64.347C71.7732 64.1869 71.7733 64.0268 71.7733 63.8619C71.8048 63.198 72.1673 63.3547 72.7559 63.3513Z" fill="#FCD116"/>
<path d="M11.0524 60.1321C11.1931 60.1304 11.3338 60.1287 11.4787 60.1269C11.6295 60.1266 11.7804 60.1263 11.9358 60.126C12.0925 60.1251 12.2492 60.1242 12.4106 60.1233C12.7421 60.122 13.0736 60.1213 13.4051 60.1214C13.9093 60.1208 14.4134 60.116 14.9175 60.1109C15.2403 60.1101 15.5631 60.1096 15.8859 60.1093C16.0354 60.1074 16.1849 60.1055 16.3389 60.1035C17.7012 60.1113 18.7701 60.4532 19.7674 61.3909C20.6195 62.3224 20.8417 63.4209 20.8299 64.6434C20.8298 64.7484 20.8298 64.8533 20.8297 64.9615C20.8293 65.1815 20.8282 65.4014 20.8266 65.6214C20.8241 65.9596 20.8238 66.2976 20.8239 66.6358C20.8232 66.85 20.8224 67.0642 20.8215 67.2784C20.8214 67.3798 20.8212 67.4813 20.821 67.5858C20.8145 68.2937 20.8145 68.2937 20.6648 68.4426C20.3785 68.456 20.0917 68.4601 19.8051 68.4604C19.6306 68.4605 19.4561 68.4607 19.2762 68.4609C19.1849 68.4606 19.0935 68.4603 18.9994 68.46C18.7202 68.4593 18.4411 68.46 18.1619 68.4609C17.9001 68.4606 17.9001 68.4606 17.633 68.4604C17.4715 68.4602 17.31 68.4601 17.1437 68.4599C16.7733 68.4426 16.7733 68.4426 16.6392 68.3092C16.6197 68.0976 16.6087 67.8852 16.6014 67.6729C16.5939 67.4785 16.5939 67.4785 16.5862 67.2802C16.5792 67.0755 16.5792 67.0755 16.5721 66.8667C16.5628 66.5989 16.553 66.3312 16.5427 66.0636C16.5386 65.9442 16.5346 65.8249 16.5304 65.702C16.4895 65.0931 16.4895 65.0931 16.1417 64.6108C15.5391 64.2765 14.839 64.3719 14.1651 64.3734C14.0131 64.3697 13.8612 64.3659 13.7046 64.362C13.5578 64.3616 13.411 64.3613 13.2598 64.3609C13.0594 64.3595 13.0594 64.3595 12.8549 64.3581C12.3108 64.477 12.1436 64.6636 11.8084 65.1072C11.7093 65.594 11.7195 66.0734 11.7258 66.5686C11.7251 66.7159 11.7244 66.8633 11.7236 67.0151C11.722 67.5022 11.7253 67.989 11.7287 68.476C11.729 68.8144 11.7289 69.1529 11.7287 69.4913C11.7289 70.2006 11.7314 70.9098 11.7357 71.6191C11.7406 72.4383 11.7418 73.2574 11.7409 74.0766C11.74 74.8657 11.7415 75.6548 11.7441 76.4438C11.745 76.7792 11.7454 77.1145 11.7453 77.4498C11.7456 77.9184 11.7484 78.3868 11.7521 78.8554C11.7515 79.0635 11.7515 79.0635 11.7509 79.2759C11.7524 80.2005 11.7524 80.2005 12.211 80.9838C12.8232 81.1867 13.4316 81.1418 14.0728 81.1422C14.2062 81.1439 14.3395 81.1455 14.477 81.1472C14.6062 81.1474 14.7354 81.1477 14.8685 81.148C14.9861 81.1485 15.1037 81.149 15.2249 81.1496C15.6201 81.112 15.8898 81.0449 16.2366 80.8504C16.5565 80.3206 16.5505 79.7576 16.5605 79.155C16.5631 79.0583 16.5657 78.9615 16.5684 78.8618C16.5764 78.5546 16.5826 78.2474 16.5888 77.9402C16.594 77.7312 16.5992 77.5221 16.6046 77.313C16.6174 76.8022 16.6287 76.2914 16.6392 75.7805C16.497 75.7836 16.3548 75.7867 16.2083 75.7899C16.022 75.7924 15.8358 75.7949 15.6495 75.7972C15.5558 75.7995 15.462 75.8017 15.3654 75.804C15.1189 75.8064 14.8724 75.7943 14.6263 75.7805C14.2561 75.4124 14.3233 75.1945 14.3223 74.6799C14.322 74.5134 14.3216 74.3469 14.3213 74.1754C14.3223 74.0006 14.3233 73.8259 14.3244 73.6459C14.3229 73.3838 14.3229 73.3838 14.3213 73.1164C14.3216 72.9499 14.322 72.7834 14.3223 72.6119C14.3226 72.4585 14.3229 72.3051 14.3232 72.147C14.358 71.7781 14.358 71.7781 14.6263 71.5112C14.881 71.4773 14.881 71.4773 15.1945 71.4767C15.3119 71.4759 15.4292 71.475 15.5501 71.4741C15.7404 71.475 15.7404 71.475 15.9347 71.4758C16.0647 71.4755 16.1947 71.4753 16.3287 71.475C16.6039 71.4748 16.8792 71.4753 17.1544 71.4764C17.5767 71.4779 17.999 71.4764 18.4213 71.4747C18.6883 71.4749 18.9553 71.4753 19.2223 71.4758C19.3492 71.4752 19.4761 71.4747 19.6069 71.4741C19.7829 71.4754 19.7829 71.4754 19.9624 71.4767C20.1176 71.477 20.1176 71.477 20.276 71.4773C20.5306 71.5112 20.5306 71.5112 20.799 71.7781C20.8339 72.1861 20.8339 72.1861 20.8358 72.718C20.8365 72.8148 20.8372 72.9115 20.8379 73.0113C20.8398 73.3326 20.8396 73.6539 20.8393 73.9753C20.8398 74.199 20.8404 74.4228 20.8411 74.6465C20.8421 75.1167 20.842 75.5869 20.8413 76.057C20.8405 76.6566 20.8428 77.2562 20.8459 77.8558C20.8479 78.3187 20.848 78.7816 20.8476 79.2445C20.8477 79.4653 20.8484 79.6861 20.8497 79.907C20.8594 81.6949 20.7487 83.1049 19.4571 84.4526C18.3958 85.3243 17.2081 85.4481 15.8765 85.4444C15.7295 85.4451 15.5825 85.4458 15.431 85.4465C15.1217 85.4474 14.8123 85.4472 14.503 85.446C14.0327 85.4449 13.5626 85.4487 13.0924 85.453C12.7903 85.4532 12.4883 85.4531 12.1863 85.4527C12.0473 85.4542 11.9084 85.4557 11.7652 85.4573C10.4473 85.4449 9.37736 85.0798 8.41178 84.1759C7.70927 83.3788 7.34739 82.3094 7.34523 81.2598C7.34428 81.1046 7.34333 80.9494 7.34235 80.7895C7.34269 80.621 7.34302 80.4526 7.34336 80.2791C7.34278 80.0984 7.34208 79.9177 7.34128 79.7371C7.33949 79.2478 7.33941 78.7585 7.33975 78.2691C7.33989 77.8597 7.33924 77.4503 7.33859 77.0409C7.33711 76.0742 7.33704 75.1075 7.33786 74.1408C7.33867 73.146 7.33702 72.1513 7.33416 71.1565C7.33179 70.3005 7.33099 69.4444 7.33143 68.5884C7.33167 68.078 7.33132 67.5676 7.32945 67.0573C7.32775 66.5767 7.32803 66.0962 7.32977 65.6157C7.33024 65.3572 7.32873 65.0987 7.32715 64.8402C7.33574 63.409 7.53956 62.1541 8.5879 61.1047C9.33253 60.5342 10.1 60.1399 11.0524 60.1321Z" fill="#FCD116"/>
<path d="M57.5204 63.2221C57.7007 63.2218 57.7007 63.2218 57.8847 63.2214C58.2834 63.2208 58.6821 63.2212 59.0808 63.2217C59.3569 63.2216 59.633 63.2215 59.909 63.2213C60.4881 63.2211 61.0671 63.2214 61.6461 63.222C62.3901 63.2228 63.1341 63.2223 63.8781 63.2215C64.4482 63.2211 65.0184 63.2212 65.5885 63.2216C65.8629 63.2216 66.1374 63.2215 66.4118 63.2212C66.7945 63.2209 67.1771 63.2214 67.5598 63.2221C67.6743 63.2219 67.7889 63.2216 67.9069 63.2213C68.6887 63.2242 68.6887 63.2242 68.8382 63.3728C68.8516 63.6462 68.8558 63.92 68.8561 64.1936C68.8562 64.3606 68.8564 64.5275 68.8566 64.6994C68.8561 64.8753 68.8555 65.0511 68.855 65.2323C68.8555 65.4077 68.856 65.583 68.8566 65.7636C68.8564 65.9307 68.8562 66.0978 68.8561 66.2699C68.8559 66.4242 68.8558 66.5785 68.8556 66.7374C68.8382 67.1085 68.8382 67.1085 68.704 67.3753C66.0029 67.3753 63.3017 67.3753 60.5186 67.3753C60.5186 69.0043 60.5186 70.6333 60.5186 72.3117C60.9611 72.3086 61.4036 72.3055 61.8594 72.3023C62.2867 72.3003 62.7139 72.2986 63.1411 72.2971C63.4387 72.2957 63.7362 72.2939 64.0338 72.2916C64.4608 72.2884 64.8877 72.2869 65.3148 72.2857C65.5152 72.2836 65.5152 72.2836 65.7197 72.2815C65.9051 72.2815 65.9051 72.2815 66.0941 72.2814C66.2032 72.2808 66.3123 72.2803 66.4246 72.2796C66.6912 72.3117 66.6912 72.3117 66.9596 72.5786C66.9922 72.9497 66.9922 72.9497 66.9905 73.4171C66.9903 73.5842 66.99 73.7513 66.9897 73.9234C66.9881 74.0987 66.9865 74.2741 66.9848 74.4547C66.9846 74.7185 66.9846 74.7185 66.9845 74.9876C66.9784 76.2955 66.9784 76.2955 66.8254 76.4476C66.6277 76.4601 66.4294 76.4633 66.2312 76.4628C66.105 76.4628 65.9787 76.4628 65.8486 76.4628C65.7114 76.4621 65.5741 76.4614 65.4327 76.4607C65.2929 76.4605 65.1531 76.4603 65.0091 76.4601C64.5606 76.4593 64.1121 76.4577 63.6636 76.456C63.3604 76.4553 63.0572 76.4547 62.7539 76.4542C62.0088 76.4528 61.2637 76.4502 60.5186 76.4476C60.5186 78.0326 60.5186 79.6176 60.5186 81.2506C61.4026 81.2483 61.4026 81.2483 62.3045 81.2459C62.7731 81.2451 63.2418 81.2444 63.7105 81.2437C64.2059 81.243 64.7013 81.2421 65.1967 81.2406C65.6735 81.2391 66.1503 81.2383 66.6271 81.238C66.8094 81.2377 66.9917 81.2372 67.1739 81.2365C67.4284 81.2356 67.6829 81.2355 67.9374 81.2355C68.1551 81.235 68.1551 81.235 68.3772 81.2346C68.704 81.2506 68.704 81.2506 68.8382 81.3841C68.8723 82.0031 68.8631 82.6237 68.8634 83.2435C68.865 83.4189 68.8667 83.5942 68.8684 83.7749C68.8686 83.9419 68.8689 84.109 68.8692 84.2812C68.8697 84.4354 68.8703 84.5897 68.8708 84.7486C68.8382 85.1197 68.8382 85.1197 68.5699 85.3865C68.1832 85.4131 67.8095 85.4229 67.4227 85.4211C67.304 85.4215 67.1853 85.422 67.063 85.4225C66.6693 85.4237 66.2756 85.4229 65.8819 85.422C65.6092 85.4222 65.3364 85.4224 65.0637 85.4228C64.4915 85.4232 63.9194 85.4226 63.3472 85.4213C62.6126 85.4198 61.878 85.4207 61.1433 85.4223C60.5799 85.4232 60.0166 85.4229 59.4532 85.4223C59.1823 85.4221 58.9113 85.4223 58.6404 85.4229C58.2622 85.4236 57.8841 85.4226 57.5059 85.4211C57.3931 85.4216 57.2803 85.4222 57.1641 85.4227C56.3895 85.417 56.3895 85.417 56.0904 85.1197C56.0574 84.7472 56.0574 84.7472 56.0581 84.262C56.0579 84.173 56.0577 84.084 56.0575 83.9922C56.057 83.6925 56.0585 83.3928 56.06 83.0931C56.06 82.8788 56.06 82.6645 56.0598 82.4502C56.0598 81.8673 56.0613 81.2843 56.0632 80.7013C56.0649 80.0925 56.065 79.4837 56.0654 78.875C56.0662 77.7216 56.0684 76.5682 56.0711 75.4148C56.0741 74.102 56.0756 72.7891 56.0769 71.4763C56.0797 68.7751 56.0844 66.074 56.0904 63.3728C56.535 63.1518 57.0316 63.221 57.5204 63.2221Z" fill="#FCD116"/>
<path d="M138.205 63.2198C138.32 63.2199 138.434 63.22 138.552 63.22C138.732 63.2193 138.732 63.2193 138.916 63.2187C139.315 63.2174 139.713 63.2171 140.112 63.217C140.388 63.2166 140.664 63.2161 140.94 63.2156C141.519 63.2148 142.099 63.2146 142.678 63.2147C143.422 63.2147 144.165 63.2129 144.909 63.2106C145.479 63.2091 146.05 63.2088 146.62 63.2089C146.894 63.2087 147.168 63.2081 147.443 63.2071C147.826 63.2058 148.209 63.2062 148.592 63.207C148.706 63.2062 148.82 63.2055 148.938 63.2047C149.723 63.2089 149.723 63.2089 150.022 63.5062C150.056 63.863 150.056 63.863 150.057 64.3109C150.058 64.5516 150.058 64.5516 150.058 64.7971C150.057 64.9655 150.056 65.1339 150.055 65.3073C150.057 65.5599 150.057 65.5599 150.058 65.8176C150.058 65.978 150.058 66.1385 150.057 66.3038C150.057 66.4516 150.057 66.5994 150.056 66.7517C150.022 67.1085 150.022 67.1085 149.753 67.3753C149.41 67.4074 149.41 67.4074 148.971 67.4056C148.726 67.4056 148.726 67.4056 148.475 67.4055C148.295 67.4042 148.116 67.4028 147.936 67.4014C147.753 67.4009 147.57 67.4005 147.387 67.4002C146.905 67.3992 146.423 67.3966 145.94 67.3936C145.448 67.3909 144.956 67.3897 144.464 67.3883C143.499 67.3856 142.533 67.3804 141.568 67.3753C141.568 69.0043 141.568 70.6333 141.568 72.3117C142.022 72.3102 142.475 72.3086 142.943 72.307C143.38 72.306 143.818 72.3052 144.255 72.3044C144.56 72.3037 144.865 72.3028 145.17 72.3016C145.607 72.3 146.045 72.2993 146.482 72.2987C146.619 72.298 146.756 72.2973 146.898 72.2966C147.024 72.2966 147.15 72.2966 147.28 72.2966C147.392 72.2963 147.504 72.296 147.619 72.2957C147.875 72.3117 147.875 72.3117 148.009 72.4451C148.022 72.7298 148.026 73.0149 148.027 73.2998C148.027 73.4734 148.027 73.6469 148.027 73.8257C148.027 73.9165 148.027 74.0073 148.026 74.1009C148.026 74.3785 148.026 74.6561 148.027 74.9337C148.027 75.1072 148.027 75.2807 148.027 75.4595C148.027 75.6201 148.026 75.7806 148.026 75.946C148.009 76.3142 148.009 76.3142 147.875 76.4476C147.677 76.46 147.479 76.4633 147.28 76.4628C147.154 76.4628 147.028 76.4627 146.898 76.4627C146.761 76.462 146.623 76.4614 146.482 76.4607C146.342 76.4605 146.202 76.4603 146.058 76.4601C145.61 76.4593 145.161 76.4577 144.713 76.456C144.41 76.4553 144.106 76.4547 143.803 76.4541C143.058 76.4528 142.313 76.4502 141.568 76.4476C141.568 78.0326 141.568 79.6176 141.568 81.2506C142.167 81.2491 142.766 81.2475 143.383 81.2459C143.859 81.2451 144.336 81.2443 144.812 81.2437C145.316 81.243 145.819 81.2421 146.323 81.2406C146.807 81.2391 147.292 81.2383 147.777 81.238C147.962 81.2377 148.147 81.2372 148.333 81.2365C148.591 81.2355 148.85 81.2355 149.109 81.2355C149.33 81.235 149.33 81.235 149.555 81.2346C149.887 81.2506 149.887 81.2506 150.022 81.384C150.056 82.0031 150.047 82.6236 150.047 83.2435C150.048 83.4189 150.05 83.5942 150.052 83.7748C150.052 83.9419 150.052 84.109 150.053 84.2811C150.053 84.4354 150.054 84.5897 150.054 84.7486C150.022 85.1197 150.022 85.1197 149.753 85.3865C149.362 85.4123 148.983 85.4215 148.592 85.4189C148.471 85.4192 148.351 85.4194 148.227 85.4197C147.829 85.4202 147.43 85.4188 147.031 85.4173C146.755 85.4171 146.479 85.4171 146.203 85.4171C145.624 85.4169 145.045 85.4158 144.466 85.414C143.722 85.4117 142.978 85.4112 142.234 85.4113C141.664 85.4113 141.094 85.4105 140.524 85.4096C140.249 85.4091 139.975 85.4089 139.7 85.4088C139.318 85.4085 138.935 85.4073 138.552 85.4059C138.438 85.406 138.323 85.406 138.205 85.4061C137.423 85.4018 137.423 85.4018 137.274 85.2531C137.261 84.9714 137.257 84.6893 137.257 84.4073C137.256 84.2732 137.256 84.2732 137.256 84.1365C137.256 83.8348 137.256 83.5332 137.256 83.2315C137.256 83.0162 137.256 82.8008 137.256 82.5854C137.255 81.9989 137.255 81.4123 137.256 80.8257C137.256 80.2132 137.256 79.6008 137.256 78.9883C137.255 77.9596 137.256 76.9308 137.256 75.9021C137.257 74.711 137.257 73.5199 137.256 72.3287C137.255 71.308 137.255 70.2872 137.256 69.2665C137.256 68.656 137.256 68.0455 137.256 67.435C137.255 66.8612 137.255 66.2874 137.256 65.7136C137.256 65.5023 137.256 65.2911 137.256 65.0799C137.256 64.7928 137.256 64.5057 137.257 64.2186C137.257 64.0576 137.257 63.8965 137.257 63.7306C137.288 63.0713 137.622 63.223 138.205 63.2198Z" fill="#FCD116"/>
<path d="M125.262 63.3471C125.381 63.3449 125.499 63.3428 125.621 63.3406C126.164 63.3346 126.707 63.3292 127.25 63.3261C127.534 63.3239 127.819 63.3203 128.104 63.3152C131.157 63.2607 131.157 63.2607 132.443 64.0399C132.525 64.0891 132.607 64.1382 132.692 64.1889C133.414 64.7029 133.873 65.5907 134.053 66.4414C134.065 66.6198 134.071 66.7987 134.071 66.9775C134.071 67.0812 134.072 67.1849 134.072 67.2918C134.072 67.4577 134.072 67.4577 134.071 67.627C134.071 67.7414 134.071 67.8559 134.072 67.9738C134.072 68.215 134.071 68.4562 134.071 68.6974C134.07 69.0681 134.071 69.4387 134.072 69.8094C134.072 70.0436 134.071 70.2779 134.071 70.5122C134.072 70.6236 134.072 70.7351 134.072 70.8499C134.069 71.6293 134.069 71.6293 133.919 71.7781C133.319 71.8119 132.717 71.8028 132.116 71.8031C131.946 71.8047 131.776 71.8063 131.601 71.808C131.439 71.8083 131.277 71.8085 131.11 71.8088C130.886 71.8096 130.886 71.8096 130.657 71.8105C130.296 71.7781 130.296 71.7781 130.028 71.5112C129.996 71.171 129.996 71.171 129.996 70.7451C129.994 70.5919 129.991 70.4386 129.989 70.2808C129.987 69.957 129.986 69.6331 129.987 69.3093C129.984 69.1557 129.982 69.0022 129.979 68.8439C129.979 68.7031 129.978 68.5623 129.978 68.4172C129.922 68.0188 129.922 68.0188 129.596 67.7302C128.992 67.3718 128.434 67.4261 127.747 67.4337C127.614 67.4305 127.482 67.4273 127.346 67.424C127.154 67.4244 127.154 67.4244 126.958 67.4248C126.842 67.4247 126.726 67.4246 126.607 67.4245C126.104 67.5503 125.919 67.7729 125.6 68.1758C125.503 68.5736 125.511 68.9601 125.517 69.3677C125.516 69.4864 125.516 69.6052 125.515 69.7275C125.513 70.1193 125.516 70.5108 125.52 70.9025C125.52 71.1751 125.52 71.4478 125.52 71.7204C125.52 72.2915 125.523 72.8626 125.527 73.4336C125.532 74.1654 125.533 74.897 125.532 75.6288C125.531 76.1917 125.533 76.7546 125.535 77.3174C125.536 77.5872 125.537 77.857 125.537 78.1268C125.537 78.504 125.54 78.8811 125.543 79.2582C125.543 79.4252 125.543 79.4252 125.542 79.5956C125.551 80.2107 125.601 80.6174 126.002 81.1172C126.333 81.2816 126.554 81.2679 126.924 81.2683C127.054 81.2685 127.183 81.2687 127.317 81.2689C127.453 81.2683 127.59 81.2678 127.73 81.2673C127.865 81.2678 128 81.2683 128.139 81.2689C128.269 81.2687 128.4 81.2685 128.534 81.2683C128.653 81.2682 128.772 81.268 128.895 81.2679C129.209 81.2513 129.466 81.2309 129.759 81.1172C129.905 80.6841 129.915 80.3549 129.922 79.8993C129.926 79.7392 129.93 79.5792 129.933 79.4143C129.94 79.0759 129.946 78.7375 129.951 78.3991C129.955 78.2392 129.96 78.0794 129.964 77.9147C129.966 77.7677 129.969 77.6207 129.972 77.4693C129.99 77.3523 130.009 77.2353 130.028 77.1147C130.478 76.8161 130.633 76.8137 131.16 76.8124C131.302 76.8121 131.444 76.8118 131.591 76.8114C131.813 76.8129 131.813 76.8129 132.041 76.8145C132.189 76.8135 132.337 76.8125 132.49 76.8114C132.633 76.8117 132.775 76.8121 132.921 76.8124C133.051 76.8127 133.182 76.813 133.316 76.8133C133.651 76.8479 133.651 76.8479 134.053 77.1147C134.093 77.4715 134.107 77.797 134.102 78.1539C134.102 78.3094 134.102 78.3094 134.102 78.4681C134.102 78.6882 134.101 78.9082 134.099 79.1283C134.095 79.4621 134.096 79.7958 134.097 80.1296C134.096 80.3438 134.095 80.558 134.094 80.7722C134.094 80.8709 134.094 80.9696 134.094 81.0713C134.077 82.3215 133.743 83.3262 132.918 84.2785C131.6 85.5504 129.761 85.4674 128.052 85.4488C127.663 85.4449 127.274 85.446 126.885 85.4478C126.634 85.4469 126.382 85.4458 126.131 85.4444C125.96 85.445 125.96 85.445 125.785 85.4456C124.488 85.4257 123.318 85.1096 122.379 84.1858C121.428 83.0315 121.265 81.9988 121.267 80.5456C121.266 80.3966 121.265 80.2477 121.264 80.0942C121.261 79.6033 121.261 79.1123 121.261 78.6214C121.26 78.2789 121.259 77.9365 121.258 77.594C121.256 76.8766 121.256 76.1592 121.256 75.4418C121.256 74.6153 121.253 73.7889 121.249 72.9625C121.245 72.1643 121.244 71.3661 121.244 70.5679C121.244 70.2297 121.243 69.8916 121.241 69.5535C121.238 69.0797 121.239 68.606 121.24 68.1321C121.239 67.9937 121.237 67.8552 121.236 67.7126C121.247 66.4232 121.608 65.3583 122.504 64.4078C123.289 63.7445 124.236 63.3641 125.262 63.3471Z" fill="#FCD116"/>
<path d="M40.743 63.1964C40.9961 63.1971 40.9961 63.1971 41.2544 63.1977C41.5067 63.1945 41.5067 63.1945 41.7641 63.1912C41.9251 63.1911 42.086 63.191 42.2519 63.1909C42.3998 63.1905 42.5478 63.1901 42.7003 63.1897C43.0743 63.2394 43.0743 63.2394 43.3125 63.3886C43.5462 63.7457 43.6155 64.088 43.7075 64.5037C43.7363 64.6314 43.7363 64.6314 43.7657 64.7617C43.8274 65.0378 43.887 65.3143 43.9465 65.5909C43.9885 65.7808 44.0306 65.9706 44.0727 66.1605C44.3222 67.2931 44.5397 68.4279 44.7286 69.572C44.8174 70.0368 44.9391 70.4754 45.0787 70.9275C45.3279 71.7451 45.4772 72.5614 45.6155 73.4041C45.8449 74.8016 46.1734 76.1538 46.5632 77.515C46.8563 76.3927 47.1054 75.2663 47.3347 74.1295C47.6461 72.6085 47.9873 71.0968 48.3498 69.5868C48.5685 68.6687 48.7743 67.7498 48.9644 66.8255C48.9853 66.7242 49.0063 66.623 49.0279 66.5186C49.1298 66.025 49.2301 65.5312 49.3279 65.0368C49.3644 64.8582 49.401 64.6797 49.4377 64.5011C49.469 64.3443 49.5002 64.1874 49.5324 64.0257C49.7052 63.4557 49.7052 63.4557 50.052 63.2394C50.4261 63.1897 50.4261 63.1897 50.8745 63.1909C51.0354 63.191 51.1964 63.1911 51.3622 63.1912C51.5304 63.1934 51.6986 63.1955 51.8719 63.1977C52.0407 63.1973 52.2094 63.1969 52.3833 63.1964C53.6393 63.2038 53.6393 63.2038 53.9435 63.5062C53.8846 64.2808 53.6767 65.03 53.4906 65.7827C53.2931 66.5925 53.0998 67.4018 52.9287 68.2175C52.6709 69.4345 52.3628 70.6389 52.0392 71.8401C51.6396 73.3239 51.2848 74.8138 50.948 76.3129C50.6854 77.4737 50.4135 78.6325 50.1433 79.7915C50.0863 80.036 50.0295 80.2805 49.9728 80.525C48.9268 85.0377 48.9268 85.0377 48.576 85.3865C48.0073 85.4252 47.4379 85.4284 46.868 85.4332C46.6764 85.4355 46.4848 85.4391 46.2933 85.4442C46.0173 85.4515 45.7416 85.4544 45.4655 85.4564C45.2999 85.459 45.1342 85.4617 44.9635 85.4644C44.5503 85.3865 44.5503 85.3865 44.3084 85.1163C44.1123 84.6318 43.9893 84.1462 43.8831 83.6365C43.8605 83.533 43.8378 83.4296 43.8145 83.323C43.7427 82.9938 43.6726 82.6642 43.6026 82.3346C43.5319 82.0061 43.4607 81.6776 43.3893 81.3491C43.3451 81.1453 43.3013 80.9414 43.258 80.7375C43.1307 80.1444 42.977 79.565 42.8059 78.9826C42.7396 78.7236 42.6749 78.4642 42.612 78.2045C42.576 78.0562 42.5399 77.9079 42.5028 77.7551C42.4645 77.596 42.4261 77.437 42.3866 77.2732C42.346 77.1058 42.3055 76.9384 42.2638 76.766C42.0349 75.8197 41.809 74.8727 41.5851 73.9252C41.5617 73.826 41.5382 73.7268 41.5141 73.6246C41.4005 73.1438 41.2872 72.6628 41.1744 72.1818C40.9628 71.2822 40.7462 70.3844 40.519 69.4886C40.2396 68.3874 39.9854 67.281 39.7348 66.173C39.7018 66.0287 39.6687 65.8844 39.6347 65.7358C39.6058 65.6082 39.5769 65.4807 39.5471 65.3493C39.4534 64.9626 39.4534 64.9626 39.3077 64.5489C39.1818 64.1702 39.1387 63.9014 39.1828 63.5062C39.6196 63.072 40.1483 63.1999 40.743 63.1964Z" fill="#FCD116"/>
<path d="M114.932 63.2217C115.106 63.2215 115.28 63.2213 115.46 63.2212C115.596 63.2216 115.596 63.2216 115.735 63.222C116.013 63.2227 116.291 63.222 116.569 63.2212C116.743 63.2213 116.917 63.2215 117.096 63.2217C117.337 63.2219 117.337 63.2219 117.582 63.2221C117.951 63.2394 117.951 63.2394 118.085 63.3728C118.098 63.6545 118.102 63.9366 118.102 64.2186C118.102 64.308 118.102 64.3974 118.103 64.4894C118.103 64.7911 118.103 65.0927 118.102 65.3944C118.102 65.6098 118.103 65.8251 118.103 66.0405C118.104 66.6271 118.103 67.2136 118.103 67.8002C118.103 68.4127 118.103 69.0252 118.103 69.6376C118.103 70.6664 118.103 71.6951 118.102 72.7238C118.102 73.9149 118.102 75.1061 118.103 76.2972C118.103 77.3179 118.103 78.3387 118.103 79.3595C118.103 79.97 118.103 80.5805 118.103 81.1909C118.104 81.7648 118.103 82.3386 118.102 82.9124C118.102 83.1236 118.102 83.3348 118.103 83.546C118.103 83.8331 118.103 84.1202 118.102 84.4073C118.102 84.5684 118.102 84.7294 118.102 84.8954C118.085 85.2531 118.085 85.2531 117.951 85.3865C117.398 85.4156 116.846 85.4113 116.293 85.4113C116.015 85.4115 115.737 85.414 115.46 85.4165C115.285 85.4168 115.111 85.417 114.932 85.4173C114.771 85.4178 114.61 85.4184 114.445 85.4189C114.059 85.3865 114.059 85.3865 113.791 85.1197C113.758 84.7472 113.758 84.7472 113.759 84.262C113.758 84.173 113.758 84.084 113.758 83.9922C113.757 83.6925 113.759 83.3928 113.76 83.0931C113.76 82.8788 113.76 82.6645 113.76 82.4502C113.76 81.8673 113.762 81.2843 113.764 80.7013C113.765 80.0925 113.765 79.4837 113.766 78.8749C113.767 77.7216 113.769 76.5682 113.772 75.4148C113.775 74.102 113.776 72.7891 113.777 71.4762C113.78 68.7751 113.785 66.074 113.791 63.3728C114.174 63.1821 114.504 63.2221 114.932 63.2217Z" fill="#FCD116"/>
<path d="M30.2425 67.3086C30.3677 67.3065 30.4929 67.3045 30.622 67.3023C31.4816 67.3072 31.9869 67.4253 32.6075 68.0424C32.6239 68.4286 32.6315 68.8118 32.6334 69.1982C32.635 69.3801 32.635 69.3801 32.6367 69.5657C32.6401 69.9689 32.6423 70.3721 32.6442 70.7753C32.6449 70.9127 32.6456 71.0502 32.6464 71.1917C32.65 71.9191 32.6526 72.6465 32.6545 73.374C32.6567 74.1261 32.6627 74.8781 32.6696 75.6302C32.6741 76.2077 32.6756 76.7852 32.6764 77.3628C32.6773 77.64 32.6793 77.9173 32.6825 78.1945C32.6868 78.5826 32.6868 78.9705 32.6858 79.3587C32.688 79.4733 32.6902 79.588 32.6925 79.7061C32.6864 80.288 32.6618 80.5144 32.2899 80.9884C31.8829 81.2904 31.6878 81.3349 31.1854 81.3345C31.0447 81.3348 30.904 81.335 30.759 81.3353C30.6135 81.3321 30.4679 81.3289 30.3179 81.3257C30.1719 81.3271 30.0258 81.3286 29.8753 81.3301C28.8088 81.3203 28.8088 81.3203 28.4103 81.0208C27.9449 80.4086 28.0252 79.6703 28.0256 78.9315C28.0252 78.8205 28.0247 78.7096 28.0243 78.5953C28.023 78.2296 28.0227 77.864 28.0226 77.4983C28.0222 77.2436 28.0217 76.9889 28.0212 76.7342C28.0204 76.2008 28.0202 75.6674 28.0203 75.134C28.0203 74.4508 28.0185 73.7675 28.0161 73.0843C28.0146 72.5585 28.0144 72.0327 28.0144 71.5069C28.0143 71.2549 28.0137 71.003 28.0127 70.7511C28.0113 70.3989 28.0117 70.0467 28.0125 69.6945C28.0118 69.5906 28.011 69.4868 28.0103 69.3798C28.0144 68.6733 28.1278 68.1942 28.5116 67.6046C29.0542 67.2372 29.6019 67.2981 30.2425 67.3086Z" fill="#0038A8"/>
<path d="M47.8914 95.8264C48.7319 96.4687 49.3333 97.4614 49.6494 98.4614C49.8101 99.7655 49.8184 101.121 48.9785 102.197C48.4522 102.785 47.8621 103.073 47.0773 103.165C46.3316 103.203 45.9596 103.058 45.3554 102.597C45.1032 102.443 45.1032 102.443 44.8187 102.464C44.5815 102.59 44.344 102.717 44.1184 102.863C43.5089 103.206 42.8162 103.195 42.1349 103.131C41.4273 102.887 41.0887 102.516 40.6589 101.93C40.2636 100.751 40.4723 99.5257 40.9975 98.4275C41.7978 96.9476 42.8657 95.6935 44.5335 95.1822C45.7934 94.9335 46.8321 95.1329 47.8914 95.8264Z" fill="#0038A8"/>
<path d="M77.5185 67.3419C77.6648 67.3392 77.811 67.3364 77.9617 67.3336C79.4038 67.3266 79.4038 67.3266 79.9758 67.7756C80.2566 68.4142 80.2835 69.0196 80.2798 69.7059C80.2802 69.8657 80.2802 69.8657 80.2806 70.0288C80.2808 70.253 80.2803 70.4773 80.2792 70.7015C80.2777 71.0432 80.2792 71.3848 80.2809 71.7265C80.2807 71.9452 80.2804 72.1639 80.2798 72.3826C80.2804 72.4839 80.2809 72.5853 80.2815 72.6897C80.2763 73.28 80.2144 73.7702 79.9758 74.313C79.2611 74.8739 78.3841 74.7628 77.5185 74.7466C77.3697 74.7459 77.2208 74.7452 77.0675 74.7445C75.9709 74.7338 75.9709 74.7338 75.816 74.5798C75.8028 74.3594 75.7988 74.1384 75.7986 73.9177C75.7982 73.7765 75.7978 73.6354 75.7974 73.49C75.7978 73.2597 75.7978 73.2597 75.7982 73.0247C75.7981 72.8682 75.7979 72.7118 75.7978 72.5506C75.7977 72.219 75.798 71.8875 75.7985 71.556C75.7992 71.0465 75.7985 70.537 75.7977 70.0275C75.7978 69.7063 75.7979 69.3851 75.7982 69.0639C75.7979 68.9103 75.7976 68.7567 75.7974 68.5985C75.7978 68.4574 75.7982 68.3163 75.7986 68.1709C75.7988 68.0459 75.7989 67.921 75.799 67.7923C75.8428 67.0634 76.9641 67.3445 77.5185 67.3419Z" fill="#0038A8"/>
<path d="M91.5493 95.2844C91.9489 95.5462 92.1902 95.7984 92.455 96.1933C92.455 96.2813 92.455 96.3694 92.455 96.4601C92.1894 96.5482 91.9237 96.6362 91.6499 96.7269C91.5586 96.6141 91.4673 96.5013 91.3732 96.3851C91.004 96.0132 91.004 96.0132 90.5093 96.0432C89.2622 96.4417 88.6018 97.9818 87.9748 99.0478C86.1031 102.228 86.1031 102.228 84.6051 103.048C83.9547 103.209 83.4999 103.215 82.8942 102.914C82.4019 102.491 82.1572 102.118 82.0865 101.461C82.0732 101.067 82.0743 100.674 82.0807 100.279C82.0802 100.145 82.0798 100.012 82.0794 99.8737C82.085 99.0912 82.1651 98.4107 82.391 97.6608C81.7268 97.6608 81.0625 97.6608 80.3782 97.6608C80.3782 97.3527 80.3782 97.0445 80.3782 96.7269C80.7445 96.7161 81.1104 96.7082 81.4768 96.7019C81.58 96.6986 81.6832 96.6952 81.7895 96.6918C82.4049 96.6839 82.8475 96.7005 83.3303 97.1272C83.4201 97.5007 83.3623 97.806 83.3303 98.1945C83.4189 98.1505 83.5074 98.1065 83.5987 98.0611C84.006 98.0292 84.4147 98.0364 84.8231 98.0361C84.9345 98.0344 85.0459 98.0328 85.1607 98.0311C85.8934 98.0294 86.5182 98.1236 87.2217 98.3279C87.2663 98.2587 87.3109 98.1894 87.3568 98.1181C87.562 97.8008 87.7693 97.4848 87.9765 97.1689C88.0816 97.0055 88.0816 97.0055 88.1888 96.8387C89.0124 95.5902 89.9687 94.7102 91.5493 95.2844Z" fill="#FCD116"/>
<path d="M88.4487 71.8769C88.5633 71.8761 88.6779 71.8753 88.796 71.8744C88.92 71.8749 89.044 71.8755 89.1718 71.876C89.3623 71.8756 89.3623 71.8756 89.5568 71.8753C89.8257 71.8751 90.0946 71.8756 90.3635 71.8767C90.7761 71.8781 91.1887 71.8767 91.6013 71.875C91.8621 71.8752 92.123 71.8755 92.3839 71.876C92.5699 71.8752 92.5699 71.8752 92.7596 71.8744C92.9315 71.8757 92.9315 71.8757 93.107 71.8769C93.2081 71.8772 93.3092 71.8774 93.4133 71.8776C93.6628 71.9115 93.6628 71.9115 93.9312 72.1783C93.9617 72.5515 93.9617 72.5515 93.9574 73.0215C93.9566 73.1892 93.9557 73.3569 93.9548 73.5297C93.9526 73.7056 93.9503 73.8815 93.948 74.0628C93.9466 74.2416 93.9454 74.4203 93.9443 74.5991C93.9412 75.0374 93.9367 75.4757 93.9312 75.914C93.6186 76.0694 93.4384 76.0635 93.0904 76.0625C92.9131 76.0625 92.9131 76.0625 92.7322 76.0625C92.6045 76.0618 92.4767 76.0611 92.3451 76.0604C92.2144 76.0602 92.0837 76.06 91.9491 76.0598C91.5307 76.0591 91.1123 76.0574 90.6939 76.0557C90.4107 76.055 90.1275 76.0544 89.8443 76.0539C89.149 76.0524 88.4538 76.0502 87.7586 76.0474C87.4592 75.452 87.5996 74.6333 87.5992 73.9794C87.5976 73.811 87.596 73.6427 87.5943 73.4692C87.594 73.3087 87.5938 73.1483 87.5935 72.983C87.5929 72.8351 87.5924 72.6873 87.5918 72.535C87.6464 71.9373 87.906 71.8781 88.4487 71.8769Z" fill="#FCD116"/>
<path d="M65.4834 95.1259C65.8859 95.2593 65.8859 95.2593 66.0453 95.5345C66.0813 95.6198 66.1172 95.7051 66.1543 95.793C65.6511 96.1933 65.6511 96.1933 65.3492 96.1933C65.3049 96.5015 65.2606 96.8096 65.215 97.1272C65.4052 97.1118 65.5953 97.0948 65.7853 97.0771C65.8912 97.0679 65.997 97.0586 66.1061 97.049C66.4229 97.0106 66.4229 97.0106 66.6774 96.8583C67.2947 96.5708 68.0402 96.6604 68.7039 96.7269C69.3793 97.045 69.8445 97.5274 70.1799 98.1945C70.1853 98.4613 70.1858 98.7282 70.1799 98.995C71.108 98.8557 71.6789 98.464 72.4181 97.898C73.0604 97.4088 73.6875 97.4651 74.4739 97.5274C75.0366 97.7536 75.3414 98.0995 75.6816 98.5948C75.9244 99.1782 75.9175 99.8819 75.7241 100.479C75.2977 101.409 74.6255 101.946 73.6688 102.33C73.283 102.355 73.283 102.355 72.9979 102.33C72.9314 101.934 72.9314 101.934 72.8637 101.53C72.9446 101.499 73.0256 101.468 73.109 101.437C73.8855 101.122 74.3557 100.831 74.7423 100.062C74.771 99.3143 74.771 99.3143 74.6081 98.5948C74.1208 98.4333 73.7789 98.4149 73.2662 98.4613C72.8439 98.708 72.8439 98.708 72.4611 99.045C71.7292 99.6547 71.1449 99.9289 70.1799 99.9289C70.1772 100.083 70.1744 100.237 70.1715 100.396C70.0788 101.136 69.6597 101.587 69.1064 102.064C68.0897 102.603 66.7196 102.328 65.6176 102.197C65.517 102.66 65.517 102.66 65.4834 103.131C65.1734 103.131 64.8634 103.131 64.5441 103.131C64.5258 102.92 64.5129 102.709 64.5021 102.497C64.4943 102.38 64.4866 102.262 64.4785 102.141C64.5441 101.797 64.5441 101.797 64.781 101.486C65.4513 101.142 66.0929 101.228 66.8336 101.263C67.123 101.277 67.4126 101.288 67.7022 101.296C67.83 101.303 67.9579 101.309 68.0896 101.315C68.5437 101.247 68.691 101.082 68.9722 100.729C69.1321 100.253 69.1438 99.8478 69.1568 99.3452C69.1633 99.1708 69.1699 98.9964 69.1767 98.8168C69.145 98.3117 69.145 98.3117 68.8045 97.935C68.329 97.5817 68.1009 97.5809 67.5308 97.6108C67.1908 97.6547 67.1908 97.6547 66.7582 97.861C66.1797 98.1075 65.7017 98.1686 65.0808 98.0611C64.6956 97.8218 64.4781 97.6632 64.2757 97.2606C64.1964 96.7681 64.1895 96.4532 64.4759 96.0327C65.1007 95.3162 65.1007 95.3162 65.4834 95.1259Z" fill="#FCD116"/>
<path d="M47.8914 95.8264C48.7319 96.4687 49.3333 97.4614 49.6494 98.4614C49.8101 99.7655 49.8184 101.121 48.9785 102.197C48.4522 102.785 47.8621 103.073 47.0773 103.165C46.3316 103.203 45.9596 103.058 45.3554 102.597C45.1032 102.443 45.1032 102.443 44.8187 102.464C44.5815 102.59 44.344 102.717 44.1184 102.863C43.5089 103.206 42.8162 103.195 42.1349 103.131C41.4273 102.887 41.0887 102.516 40.6589 101.93C40.2636 100.751 40.4723 99.5257 40.9975 98.4275C41.7978 96.9476 42.8657 95.6935 44.5335 95.1822C45.7934 94.9335 46.8321 95.1329 47.8914 95.8264ZM42.8059 97.2606C41.8922 98.4769 41.2569 99.7133 41.464 101.263C41.6499 101.666 41.8221 101.886 42.1349 102.197C43.0927 102.333 43.7728 102.224 44.5503 101.663C44.8266 101.448 45.0913 101.227 45.3554 100.996C45.3886 101.095 45.4218 101.194 45.4561 101.296C45.6529 101.727 45.7635 101.931 46.1605 102.197C46.8546 102.325 47.3507 102.285 47.9637 101.93C48.7019 101.071 48.7847 100.253 48.7578 99.1535C48.6883 98.5335 48.4873 98.0617 48.1734 97.5275C48.0959 97.3844 48.0184 97.2413 47.9385 97.0938C47.4626 96.5155 46.8707 96.1618 46.1605 95.9265C44.8594 95.813 43.6729 96.2788 42.8059 97.2606Z" fill="#FCD116"/>
<path d="M62.5313 95.1259C63.1043 95.3369 63.4182 95.5462 63.739 96.0598C63.859 96.7116 63.8051 97.255 63.5209 97.8526C63.092 98.3127 62.7339 98.5581 62.0957 98.6276C61.5295 98.6433 61.1523 98.61 60.6526 98.3279C60.7855 97.9977 60.7855 97.9977 60.921 97.6608C61.0229 97.6574 61.1248 97.654 61.2298 97.6504C61.3631 97.6429 61.4965 97.6353 61.6339 97.6275C61.8324 97.6182 61.8324 97.6182 62.0349 97.6087C62.4114 97.5581 62.4114 97.5581 62.6476 97.2762C62.8312 96.9954 62.8312 96.9954 62.7745 96.6435C62.6847 96.3066 62.6847 96.3066 62.3971 96.0598C61.8394 96.0487 61.8394 96.0487 61.3236 96.1933C60.7159 96.8123 60.3072 97.5417 59.8727 98.2862C59.2848 99.2759 58.6886 100.228 57.9689 101.13C57.8924 101.228 57.816 101.325 57.7372 101.426C57.1122 102.185 56.366 102.817 55.4193 103.131C54.8107 103.184 54.2578 103.2 53.6833 102.981C53.2267 102.568 53.031 102.206 52.9704 101.588C52.9477 100.528 53.1042 99.5059 53.2723 98.4613C52.6081 98.4613 51.9439 98.4613 51.2595 98.4613C51.2595 98.1532 51.2595 97.845 51.2595 97.5274C51.6258 97.5166 51.9918 97.5087 52.3582 97.5024C52.4614 97.4991 52.5645 97.4957 52.6708 97.4923C53.3015 97.4842 53.6932 97.5303 54.2116 97.9277C54.3458 98.0611 54.3458 98.0611 54.371 98.5364C54.3667 99.0191 54.2688 99.4341 54.1377 99.8997C53.9941 100.605 53.9825 101.38 54.2116 102.064C54.7424 102.222 55.0703 102.212 55.5619 101.98C56.0433 101.714 56.3946 101.409 56.7612 100.996C56.8196 100.933 56.8779 100.87 56.9381 100.805C57.5278 100.151 57.977 99.4381 58.4302 98.6865C60.6937 94.9537 60.6937 94.9537 62.5313 95.1259Z" fill="#FCD116"/>
<path d="M117.012 95.5262C117.146 95.9264 117.146 95.9264 117.02 96.2183C116.973 96.2981 116.926 96.3779 116.877 96.4601C116.798 96.4312 116.718 96.4023 116.636 96.3725C115.498 95.9926 114.345 95.8326 113.217 96.3314C112.719 96.6089 112.392 96.8877 112.215 97.4373C112.147 97.7336 112.091 98.0273 112.047 98.3279C112.171 98.3665 112.296 98.405 112.424 98.4447C112.852 98.5948 112.852 98.5948 113.254 98.8616C113.338 99.1701 113.338 99.1701 113.254 99.5287C112.965 99.7916 112.65 99.9959 112.315 100.196C112.392 100.254 112.47 100.311 112.55 100.371C112.649 100.445 112.749 100.519 112.852 100.596C112.951 100.657 113.051 100.717 113.154 100.779C113.388 100.996 113.388 100.996 113.443 101.309C113.388 101.663 113.388 101.663 113.114 101.943C112.994 102.03 112.874 102.116 112.751 102.205C112.302 102.535 111.895 102.862 111.51 103.264C111.288 103.132 111.067 103 110.839 102.864C111.168 102.21 111.619 101.85 112.181 101.397C111.827 101.132 111.472 100.868 111.107 100.596C111.163 99.9513 111.438 99.6852 111.912 99.2618C111.804 99.2013 111.697 99.1408 111.585 99.0784C111.241 98.8616 111.241 98.8616 111.107 98.5948C111.089 98.3446 111.089 98.3446 111.091 98.0611C111.09 97.9208 111.09 97.9208 111.089 97.7776C111.107 97.5274 111.107 97.5274 111.241 97.2606C111.152 97.2991 111.063 97.3377 110.97 97.3773C109.825 97.8361 108.796 98.0454 107.627 97.5525C107.236 97.3568 106.877 97.1471 106.545 96.8604C106.587 96.6102 106.587 96.6102 106.679 96.3267C106.812 96.2386 106.945 96.1506 107.082 96.0599C107.14 96.108 107.199 96.1562 107.26 96.2058C108.072 96.7964 108.78 96.8752 109.765 96.7269C110.85 96.4167 111.867 95.908 112.882 95.424C114.139 94.8683 115.777 94.9549 117.012 95.5262Z" fill="#FCD116"/>
<path d="M104.802 98.8825C104.985 99.0015 105.162 99.1304 105.337 99.2619C105.248 99.482 105.16 99.7021 105.069 99.9289C104.644 99.9289 104.495 99.8638 104.129 99.6704C102.38 98.7512 100.445 99.3212 98.663 99.8635C97.2486 100.285 95.8583 100.41 94.4967 99.7471C93.8181 99.3646 93.8181 99.3646 93.5286 99.1284C93.5286 98.7282 93.5286 98.7282 93.7969 98.3279C94.2057 98.4804 94.5356 98.6388 94.904 98.8783C96.5182 99.6585 98.366 99.0086 99.9638 98.5301C101.695 98.022 103.184 97.9581 104.802 98.8825Z" fill="#FCD116"/>
<path d="M84.8737 98.8283C85.0439 98.8276 85.2141 98.8269 85.3895 98.8262C85.8672 98.8607 86.2407 98.9566 86.6852 99.1284C86.2519 100.287 85.4467 101.523 84.3873 102.197C84.0015 102.33 84.0015 102.33 83.7079 102.33C83.3358 102.126 83.2412 101.914 83.0622 101.53C83.0142 101.114 83.0241 100.705 83.037 100.287C83.0388 100.176 83.0406 100.064 83.0425 99.9495C83.0472 99.6758 83.0544 99.4021 83.0622 99.1284C83.6846 98.8878 84.2073 98.8256 84.8737 98.8283Z" fill="#0038A8"/>
<path d="M122.259 99.5026C122.391 99.5035 122.523 99.5043 122.659 99.5052C122.796 99.5075 122.933 99.5097 123.075 99.512C123.214 99.5132 123.353 99.5144 123.496 99.5156C123.84 99.5188 124.183 99.5232 124.526 99.5287C124.539 100.349 124.539 100.349 124.526 100.596C124.107 101.013 122.848 100.862 122.287 100.871C121.87 100.871 121.454 100.869 121.037 100.863C121.103 100.055 121.103 100.055 121.171 99.7955C121.615 99.5017 121.745 99.4967 122.259 99.5026Z" fill="#FCD116"/>
<path d="M33.9636 99.5026C34.0955 99.5035 34.2274 99.5043 34.3633 99.5052C34.5007 99.5075 34.6381 99.5097 34.7797 99.512C34.9187 99.5132 35.0577 99.5144 35.2009 99.5156C35.5442 99.5188 35.8874 99.5232 36.2306 99.5287C36.2306 99.9249 36.2306 100.321 36.2306 100.729C35.1093 100.83 34.0018 100.881 32.8759 100.863C32.8366 100.055 32.8366 100.055 32.8759 99.7955C33.3191 99.5017 33.4495 99.4967 33.9636 99.5026Z" fill="#FCD116"/>
<path d="M112.181 104.065C112.402 104.065 112.623 104.065 112.852 104.065C112.852 104.329 112.852 104.593 112.852 104.865C113.117 104.865 113.383 104.865 113.657 104.865C113.657 105.085 113.657 105.306 113.657 105.532C113.391 105.532 113.125 105.532 112.852 105.532C112.852 105.797 112.852 106.061 112.852 106.333C112.63 106.333 112.409 106.333 112.181 106.333C112.181 106.069 112.181 105.805 112.181 105.532C111.915 105.532 111.649 105.532 111.375 105.532C111.375 105.312 111.375 105.092 111.375 104.865C111.641 104.865 111.907 104.865 112.181 104.865C112.181 104.601 112.181 104.337 112.181 104.065Z" fill="#FCD116"/>
<path d="M70.4484 103.398C70.6698 103.398 70.8913 103.398 71.1194 103.398C71.1194 103.662 71.1194 103.926 71.1194 104.198C71.3851 104.198 71.6508 104.198 71.9245 104.198C71.9245 104.418 71.9245 104.639 71.9245 104.865C71.6588 104.865 71.3931 104.865 71.1194 104.865C71.1194 105.13 71.1194 105.394 71.1194 105.666C70.898 105.666 70.6766 105.666 70.4484 105.666C70.4484 105.402 70.4484 105.138 70.4484 104.865C70.1827 104.865 69.9171 104.865 69.6433 104.865C69.6433 104.645 69.6433 104.425 69.6433 104.198C69.909 104.198 70.1747 104.198 70.4484 104.198C70.4484 103.934 70.4484 103.67 70.4484 103.398Z" fill="#FCD116"/>
</svg>
