<svg width="159" height="241" viewBox="0 0 159 241" fill="none" xmlns="http://www.w3.org/2000/svg">
<path d="M126.712 231.704H126.849L129.585 222.09H133.429L128.34 236.596C128.096 237.3 127.763 237.914 127.343 238.437C126.928 238.965 126.403 239.371 125.767 239.655C125.13 239.945 124.363 240.09 123.465 240.09C123.005 240.09 122.573 240.053 122.17 239.979C121.772 239.911 121.442 239.823 121.181 239.715L121.999 237.005C122.425 237.136 122.809 237.206 123.149 237.218C123.496 237.229 123.795 237.15 124.045 236.979C124.301 236.809 124.508 236.519 124.667 236.11L124.88 235.556L120.184 222.09H124.002L126.712 231.704ZM102.632 221.92C103.359 221.92 104.055 222.005 104.72 222.176C105.39 222.346 105.984 222.61 106.501 222.968C107.024 223.326 107.435 223.786 107.736 224.349C108.037 224.905 108.188 225.573 108.188 226.352V235.181H104.745V233.365H104.643C104.432 233.774 104.151 234.136 103.799 234.448C103.447 234.755 103.024 234.997 102.529 235.173C102.035 235.343 101.464 235.428 100.816 235.428C99.9812 235.428 99.2364 235.283 98.583 234.993C97.9297 234.698 97.4129 234.263 97.0322 233.689C96.6572 233.11 96.4697 232.388 96.4697 231.524C96.4698 230.797 96.6031 230.187 96.8701 229.692C97.1372 229.198 97.5007 228.8 97.9609 228.499C98.4211 228.198 98.9441 227.971 99.5293 227.817C100.12 227.664 100.739 227.556 101.387 227.493C102.148 227.414 102.762 227.34 103.228 227.271C103.693 227.198 104.032 227.09 104.242 226.948C104.452 226.806 104.558 226.596 104.558 226.317V226.267C104.558 225.727 104.387 225.309 104.046 225.014C103.711 224.718 103.234 224.57 102.614 224.57C101.961 224.57 101.441 224.715 101.055 225.005C100.668 225.289 100.413 225.647 100.288 226.079L96.9297 225.806C97.1002 225.01 97.4356 224.323 97.9355 223.743C98.4355 223.158 99.0805 222.709 99.8701 222.396C100.666 222.078 101.586 221.92 102.632 221.92ZM76.0791 224.289H76.1895C76.3485 223.937 76.5787 223.578 76.8799 223.215C77.1867 222.846 77.5847 222.539 78.0732 222.295C78.5676 222.045 79.1811 221.92 79.9141 221.92C80.8685 221.92 81.7489 222.17 82.5557 222.67C83.3625 223.164 84.0083 223.911 84.4912 224.911C84.9741 225.905 85.2148 227.153 85.2148 228.652C85.2148 230.113 84.9794 231.346 84.5078 232.352C84.0419 233.352 83.4054 234.11 82.5986 234.627C81.7975 235.138 80.8996 235.395 79.9053 235.395C79.201 235.394 78.6016 235.278 78.1074 235.045C77.6188 234.812 77.2178 234.519 76.9053 234.167C76.5928 233.809 76.3542 233.448 76.1895 233.084H76.0273V235.181H72.4482V217.727H76.0791V224.289ZM38.1084 220.77H30.0371V224.928H37.5029V227.971H30.0371V232.139H38.1416V235.181H26.3467V217.727H38.1084V220.77ZM55.9824 232.139H63.4648V235.181H52.292V217.727H55.9824V232.139ZM69.4717 235.181H65.8408V222.09H69.4717V235.181ZM94.4385 221.902C94.6203 221.902 94.8171 221.914 95.0273 221.937C95.2374 221.959 95.422 221.991 95.5811 222.03V225.252C95.4107 225.201 95.175 225.155 94.874 225.115C94.5729 225.075 94.2969 225.056 94.0469 225.056C93.5129 225.056 93.0356 225.172 92.6152 225.405C92.2005 225.633 91.8703 225.951 91.626 226.36C91.3876 226.769 91.2686 227.241 91.2686 227.774V235.181H87.6377V222.09H91.1572V224.374H91.2939C91.5326 223.562 91.9336 222.948 92.4961 222.533C93.0584 222.113 93.7058 221.902 94.4385 221.902ZM117.806 221.902C117.987 221.902 118.184 221.914 118.395 221.937C118.605 221.959 118.789 221.991 118.948 222.03V225.252C118.778 225.201 118.542 225.155 118.241 225.115C117.94 225.075 117.664 225.056 117.414 225.056C116.88 225.056 116.403 225.172 115.982 225.405C115.568 225.633 115.237 225.951 114.993 226.36C114.755 226.769 114.636 227.241 114.636 227.774V235.181H111.005V222.09H114.524V224.374H114.661C114.9 223.562 115.301 222.948 115.863 222.533C116.426 222.113 117.073 221.902 117.806 221.902ZM104.583 229.113C104.469 229.187 104.313 229.255 104.114 229.317C103.921 229.374 103.702 229.428 103.458 229.479C103.214 229.525 102.97 229.568 102.726 229.607C102.481 229.642 102.259 229.673 102.061 229.701C101.635 229.764 101.262 229.863 100.944 229.999C100.626 230.135 100.378 230.32 100.202 230.553C100.026 230.78 99.9385 231.064 99.9385 231.405C99.9385 231.9 100.118 232.278 100.476 232.539C100.839 232.795 101.299 232.923 101.855 232.923C102.389 232.923 102.861 232.818 103.271 232.607C103.679 232.392 104 232.102 104.233 231.738C104.466 231.375 104.583 230.962 104.583 230.502V229.113ZM78.7549 224.809C78.1641 224.809 77.6639 224.965 77.2549 225.277C76.8515 225.59 76.5421 226.034 76.3262 226.607C76.1103 227.181 76.002 227.857 76.002 228.636C76.002 229.414 76.1103 230.093 76.3262 230.673C76.5421 231.252 76.8547 231.704 77.2637 232.027C77.6727 232.346 78.1697 232.505 78.7549 232.505C79.3457 232.505 79.8458 232.343 80.2549 232.02C80.664 231.69 80.9734 231.235 81.1836 230.655C81.3995 230.07 81.5078 229.397 81.5078 228.636C81.5078 227.88 81.4026 227.215 81.1924 226.642C80.9822 226.068 80.6727 225.619 80.2637 225.295C79.8546 224.971 79.3515 224.809 78.7549 224.809ZM49.1299 227.895H41.1699V225.014H49.1299V227.895ZM67.665 216.729C68.2047 216.73 68.6653 216.911 69.0459 217.274C69.4322 217.632 69.6249 218.062 69.625 218.562C69.625 219.067 69.432 219.502 69.0459 219.865C68.6653 220.223 68.2047 220.402 67.665 220.402C67.1253 220.402 66.6618 220.223 66.2754 219.865C65.8949 219.502 65.7041 219.067 65.7041 218.562C65.7042 218.062 65.8948 217.632 66.2754 217.274C66.6617 216.911 67.1253 216.729 67.665 216.729ZM138.833 0C144.287 0 148.958 2.01919 152.846 6.05859C156.733 10.098 158.674 14.9487 158.667 20.6094V185.484C158.667 191.152 156.726 196.006 152.846 200.045C148.965 204.084 144.294 206.101 138.833 206.094H19.834C14.3799 206.094 9.71175 204.077 5.83105 200.045C1.95043 196.012 0.00669507 191.159 0 185.484V20.6094C0 14.9418 1.94374 10.0912 5.83105 6.05859C9.71838 2.02603 14.3864 0.00686979 19.834 0H138.833ZM69.417 92.7422L94.208 77.2852L119 92.7422V20.6094H69.417V92.7422Z" fill="black"/>
</svg>
